<svg xmlns="http://www.w3.org/2000/svg" xmlns:xlink="http://www.w3.org/1999/xlink" width="500" zoomAndPan="magnify" viewBox="0 0 375 374.999991" height="500" preserveAspectRatio="xMidYMid meet" version="1.0"><defs><g/><clipPath id="ca10401591"><path d="M 58 28 L 85 28 L 85 47 L 58 47 Z M 58 28 " clip-rule="nonzero"/></clipPath><clipPath id="086db6d4f8"><path d="M 68.277344 56.191406 L 49.226562 37.140625 L 67.050781 19.320312 L 86.097656 38.371094 Z M 68.277344 56.191406 " clip-rule="nonzero"/></clipPath><clipPath id="ae33a570ea"><path d="M 68.277344 56.191406 L 49.226562 37.140625 L 67.050781 19.320312 L 86.097656 38.371094 Z M 68.277344 56.191406 " clip-rule="nonzero"/></clipPath><clipPath id="8240e1aaf8"><path d="M 72.410156 39.636719 L 58.601562 39.636719 L 58.601562 40.785156 L 72.410156 40.785156 Z M 58.585938 29.304688 L 68.28125 29.304688 L 68.28125 28.160156 L 58.585938 28.160156 Z M 58.597656 32.171875 L 74.964844 32.171875 L 74.964844 31.023438 L 58.59375 31.023438 Z M 58.609375 45.375 L 58.609375 46.523438 L 77.125 46.523438 L 77.132812 45.378906 Z M 58.601562 43.660156 L 80.78125 43.65625 L 80.78125 42.511719 L 58.605469 42.507812 Z M 58.589844 35.046875 L 79.890625 35.042969 L 79.890625 33.898438 L 58.59375 33.898438 Z M 58.597656 37.914062 L 84.476562 37.914062 L 84.476562 36.769531 L 58.597656 36.769531 Z M 58.597656 37.914062 " clip-rule="nonzero"/></clipPath><linearGradient x1="-3630.181043" gradientTransform="matrix(0.151313, 0, 0, 0.151313, 607.881954, -449.210669)" y1="3215.53" x2="-3459.068262" gradientUnits="userSpaceOnUse" y2="3215.53" id="e4528caa68"><stop stop-opacity="1" stop-color="rgb(54.899597%, 0%, 92.939758%)" offset="0"/><stop stop-opacity="1" stop-color="rgb(55.039978%, 0.349426%, 92.91687%)" offset="0.00390625"/><stop stop-opacity="1" stop-color="rgb(55.180359%, 0.700378%, 92.893982%)" offset="0.0078125"/><stop stop-opacity="1" stop-color="rgb(55.32074%, 1.051331%, 92.869568%)" offset="0.0117188"/><stop stop-opacity="1" stop-color="rgb(55.462646%, 1.402283%, 92.84668%)" offset="0.015625"/><stop stop-opacity="1" stop-color="rgb(55.603027%, 1.753235%, 92.823792%)" offset="0.0195313"/><stop stop-opacity="1" stop-color="rgb(55.744934%, 2.104187%, 92.800903%)" offset="0.0234375"/><stop stop-opacity="1" stop-color="rgb(55.885315%, 2.453613%, 92.778015%)" offset="0.0273438"/><stop stop-opacity="1" stop-color="rgb(56.027222%, 2.804565%, 92.755127%)" offset="0.03125"/><stop stop-opacity="1" stop-color="rgb(56.167603%, 3.155518%, 92.732239%)" offset="0.0351563"/><stop stop-opacity="1" stop-color="rgb(56.307983%, 3.50647%, 92.709351%)" offset="0.0390625"/><stop stop-opacity="1" stop-color="rgb(56.448364%, 3.857422%, 92.686462%)" offset="0.0429688"/><stop stop-opacity="1" stop-color="rgb(56.590271%, 4.208374%, 92.663574%)" offset="0.046875"/><stop stop-opacity="1" stop-color="rgb(56.730652%, 4.559326%, 92.640686%)" offset="0.0507813"/><stop stop-opacity="1" stop-color="rgb(56.872559%, 4.910278%, 92.617798%)" offset="0.0546875"/><stop stop-opacity="1" stop-color="rgb(57.012939%, 5.26123%, 92.59491%)" offset="0.0585938"/><stop stop-opacity="1" stop-color="rgb(57.154846%, 5.612183%, 92.572021%)" offset="0.0625"/><stop stop-opacity="1" stop-color="rgb(57.295227%, 5.961609%, 92.549133%)" offset="0.0664062"/><stop stop-opacity="1" stop-color="rgb(57.435608%, 6.312561%, 92.526245%)" offset="0.0703125"/><stop stop-opacity="1" stop-color="rgb(57.575989%, 6.663513%, 92.503357%)" offset="0.0742188"/><stop stop-opacity="1" stop-color="rgb(57.717896%, 7.014465%, 92.480469%)" offset="0.078125"/><stop stop-opacity="1" stop-color="rgb(57.858276%, 7.365417%, 92.456055%)" offset="0.0820313"/><stop stop-opacity="1" stop-color="rgb(58.000183%, 7.71637%, 92.433167%)" offset="0.0859375"/><stop stop-opacity="1" stop-color="rgb(58.140564%, 8.067322%, 92.410278%)" offset="0.0898438"/><stop stop-opacity="1" stop-color="rgb(58.282471%, 8.418274%, 92.38739%)" offset="0.09375"/><stop stop-opacity="1" stop-color="rgb(58.422852%, 8.769226%, 92.364502%)" offset="0.0976562"/><stop stop-opacity="1" stop-color="rgb(58.563232%, 9.120178%, 92.341614%)" offset="0.101563"/><stop stop-opacity="1" stop-color="rgb(58.703613%, 9.469604%, 92.318726%)" offset="0.105469"/><stop stop-opacity="1" stop-color="rgb(58.84552%, 9.820557%, 92.295837%)" offset="0.109375"/><stop stop-opacity="1" stop-color="rgb(58.985901%, 10.171509%, 92.272949%)" offset="0.113281"/><stop stop-opacity="1" stop-color="rgb(59.127808%, 10.522461%, 92.250061%)" offset="0.117188"/><stop stop-opacity="1" stop-color="rgb(59.268188%, 10.873413%, 92.227173%)" offset="0.121094"/><stop stop-opacity="1" stop-color="rgb(59.410095%, 11.224365%, 92.204285%)" offset="0.125"/><stop stop-opacity="1" stop-color="rgb(59.550476%, 11.575317%, 92.181396%)" offset="0.128906"/><stop stop-opacity="1" stop-color="rgb(59.690857%, 11.92627%, 92.158508%)" offset="0.132813"/><stop stop-opacity="1" stop-color="rgb(59.831238%, 12.277222%, 92.13562%)" offset="0.136719"/><stop stop-opacity="1" stop-color="rgb(59.973145%, 12.628174%, 92.112732%)" offset="0.140625"/><stop stop-opacity="1" stop-color="rgb(60.113525%, 12.979126%, 92.089844%)" offset="0.144531"/><stop stop-opacity="1" stop-color="rgb(60.255432%, 13.330078%, 92.066956%)" offset="0.148438"/><stop stop-opacity="1" stop-color="rgb(60.395813%, 13.679504%, 92.044067%)" offset="0.152344"/><stop stop-opacity="1" stop-color="rgb(60.536194%, 14.030457%, 92.021179%)" offset="0.15625"/><stop stop-opacity="1" stop-color="rgb(60.676575%, 14.381409%, 91.996765%)" offset="0.160156"/><stop stop-opacity="1" stop-color="rgb(60.818481%, 14.732361%, 91.973877%)" offset="0.164063"/><stop stop-opacity="1" stop-color="rgb(60.958862%, 15.083313%, 91.950989%)" offset="0.167969"/><stop stop-opacity="1" stop-color="rgb(61.100769%, 15.434265%, 91.928101%)" offset="0.171875"/><stop stop-opacity="1" stop-color="rgb(61.24115%, 15.785217%, 91.905212%)" offset="0.175781"/><stop stop-opacity="1" stop-color="rgb(61.383057%, 16.136169%, 91.882324%)" offset="0.179688"/><stop stop-opacity="1" stop-color="rgb(61.523438%, 16.487122%, 91.859436%)" offset="0.183594"/><stop stop-opacity="1" stop-color="rgb(61.663818%, 16.838074%, 91.836548%)" offset="0.1875"/><stop stop-opacity="1" stop-color="rgb(61.804199%, 17.1875%, 91.81366%)" offset="0.191406"/><stop stop-opacity="1" stop-color="rgb(61.946106%, 17.538452%, 91.790771%)" offset="0.195312"/><stop stop-opacity="1" stop-color="rgb(62.086487%, 17.889404%, 91.767883%)" offset="0.199219"/><stop stop-opacity="1" stop-color="rgb(62.228394%, 18.240356%, 91.744995%)" offset="0.203125"/><stop stop-opacity="1" stop-color="rgb(62.368774%, 18.591309%, 91.722107%)" offset="0.207031"/><stop stop-opacity="1" stop-color="rgb(62.510681%, 18.942261%, 91.699219%)" offset="0.210938"/><stop stop-opacity="1" stop-color="rgb(62.651062%, 19.293213%, 91.676331%)" offset="0.214844"/><stop stop-opacity="1" stop-color="rgb(62.791443%, 19.644165%, 91.653442%)" offset="0.21875"/><stop stop-opacity="1" stop-color="rgb(62.931824%, 19.995117%, 91.630554%)" offset="0.222656"/><stop stop-opacity="1" stop-color="rgb(63.07373%, 20.346069%, 91.607666%)" offset="0.226563"/><stop stop-opacity="1" stop-color="rgb(63.214111%, 20.695496%, 91.583252%)" offset="0.230469"/><stop stop-opacity="1" stop-color="rgb(63.356018%, 21.046448%, 91.560364%)" offset="0.234375"/><stop stop-opacity="1" stop-color="rgb(63.496399%, 21.3974%, 91.537476%)" offset="0.238281"/><stop stop-opacity="1" stop-color="rgb(63.638306%, 21.748352%, 91.514587%)" offset="0.242188"/><stop stop-opacity="1" stop-color="rgb(63.778687%, 22.099304%, 91.491699%)" offset="0.246094"/><stop stop-opacity="1" stop-color="rgb(63.919067%, 22.450256%, 91.468811%)" offset="0.25"/><stop stop-opacity="1" stop-color="rgb(64.059448%, 22.801208%, 91.445923%)" offset="0.253906"/><stop stop-opacity="1" stop-color="rgb(64.201355%, 23.152161%, 91.423035%)" offset="0.257812"/><stop stop-opacity="1" stop-color="rgb(64.341736%, 23.503113%, 91.400146%)" offset="0.261719"/><stop stop-opacity="1" stop-color="rgb(64.483643%, 23.854065%, 91.377258%)" offset="0.265625"/><stop stop-opacity="1" stop-color="rgb(64.624023%, 24.203491%, 91.35437%)" offset="0.269531"/><stop stop-opacity="1" stop-color="rgb(64.76593%, 24.554443%, 91.331482%)" offset="0.273438"/><stop stop-opacity="1" stop-color="rgb(64.906311%, 24.905396%, 91.308594%)" offset="0.277344"/><stop stop-opacity="1" stop-color="rgb(65.046692%, 25.256348%, 91.285706%)" offset="0.28125"/><stop stop-opacity="1" stop-color="rgb(65.187073%, 25.6073%, 91.262817%)" offset="0.285156"/><stop stop-opacity="1" stop-color="rgb(65.328979%, 25.958252%, 91.239929%)" offset="0.289062"/><stop stop-opacity="1" stop-color="rgb(65.46936%, 26.309204%, 91.217041%)" offset="0.292969"/><stop stop-opacity="1" stop-color="rgb(65.611267%, 26.660156%, 91.194153%)" offset="0.296875"/><stop stop-opacity="1" stop-color="rgb(65.751648%, 27.011108%, 91.169739%)" offset="0.300781"/><stop stop-opacity="1" stop-color="rgb(65.893555%, 27.362061%, 91.146851%)" offset="0.304687"/><stop stop-opacity="1" stop-color="rgb(66.033936%, 27.713013%, 91.123962%)" offset="0.308594"/><stop stop-opacity="1" stop-color="rgb(66.174316%, 28.063965%, 91.101074%)" offset="0.3125"/><stop stop-opacity="1" stop-color="rgb(66.314697%, 28.413391%, 91.078186%)" offset="0.316406"/><stop stop-opacity="1" stop-color="rgb(66.456604%, 28.764343%, 91.055298%)" offset="0.320312"/><stop stop-opacity="1" stop-color="rgb(66.596985%, 29.115295%, 91.03241%)" offset="0.324219"/><stop stop-opacity="1" stop-color="rgb(66.738892%, 29.466248%, 91.009521%)" offset="0.328125"/><stop stop-opacity="1" stop-color="rgb(66.879272%, 29.8172%, 90.986633%)" offset="0.332031"/><stop stop-opacity="1" stop-color="rgb(67.021179%, 30.168152%, 90.963745%)" offset="0.335938"/><stop stop-opacity="1" stop-color="rgb(67.16156%, 30.519104%, 90.940857%)" offset="0.339844"/><stop stop-opacity="1" stop-color="rgb(67.301941%, 30.870056%, 90.917969%)" offset="0.34375"/><stop stop-opacity="1" stop-color="rgb(67.442322%, 31.221008%, 90.895081%)" offset="0.347656"/><stop stop-opacity="1" stop-color="rgb(67.584229%, 31.57196%, 90.872192%)" offset="0.351562"/><stop stop-opacity="1" stop-color="rgb(67.724609%, 31.921387%, 90.849304%)" offset="0.355469"/><stop stop-opacity="1" stop-color="rgb(67.866516%, 32.272339%, 90.826416%)" offset="0.359375"/><stop stop-opacity="1" stop-color="rgb(68.006897%, 32.623291%, 90.803528%)" offset="0.363281"/><stop stop-opacity="1" stop-color="rgb(68.148804%, 32.974243%, 90.78064%)" offset="0.367188"/><stop stop-opacity="1" stop-color="rgb(68.289185%, 33.325195%, 90.757751%)" offset="0.371094"/><stop stop-opacity="1" stop-color="rgb(68.429565%, 33.676147%, 90.734863%)" offset="0.375"/><stop stop-opacity="1" stop-color="rgb(68.569946%, 34.0271%, 90.710449%)" offset="0.378906"/><stop stop-opacity="1" stop-color="rgb(68.711853%, 34.378052%, 90.687561%)" offset="0.382812"/><stop stop-opacity="1" stop-color="rgb(68.852234%, 34.729004%, 90.664673%)" offset="0.386719"/><stop stop-opacity="1" stop-color="rgb(68.994141%, 35.079956%, 90.641785%)" offset="0.390625"/><stop stop-opacity="1" stop-color="rgb(69.134521%, 35.429382%, 90.618896%)" offset="0.394531"/><stop stop-opacity="1" stop-color="rgb(69.276428%, 35.780334%, 90.596008%)" offset="0.398438"/><stop stop-opacity="1" stop-color="rgb(69.416809%, 36.131287%, 90.57312%)" offset="0.402344"/><stop stop-opacity="1" stop-color="rgb(69.55719%, 36.482239%, 90.550232%)" offset="0.40625"/><stop stop-opacity="1" stop-color="rgb(69.697571%, 36.833191%, 90.527344%)" offset="0.410156"/><stop stop-opacity="1" stop-color="rgb(69.839478%, 37.184143%, 90.504456%)" offset="0.414062"/><stop stop-opacity="1" stop-color="rgb(69.979858%, 37.535095%, 90.481567%)" offset="0.417969"/><stop stop-opacity="1" stop-color="rgb(70.121765%, 37.886047%, 90.458679%)" offset="0.421875"/><stop stop-opacity="1" stop-color="rgb(70.262146%, 38.237%, 90.435791%)" offset="0.425781"/><stop stop-opacity="1" stop-color="rgb(70.404053%, 38.587952%, 90.412903%)" offset="0.429688"/><stop stop-opacity="1" stop-color="rgb(70.544434%, 38.938904%, 90.390015%)" offset="0.433594"/><stop stop-opacity="1" stop-color="rgb(70.684814%, 39.289856%, 90.367126%)" offset="0.4375"/><stop stop-opacity="1" stop-color="rgb(70.825195%, 39.639282%, 90.344238%)" offset="0.441406"/><stop stop-opacity="1" stop-color="rgb(70.967102%, 39.990234%, 90.32135%)" offset="0.445313"/><stop stop-opacity="1" stop-color="rgb(71.107483%, 40.341187%, 90.296936%)" offset="0.449219"/><stop stop-opacity="1" stop-color="rgb(71.24939%, 40.692139%, 90.274048%)" offset="0.453125"/><stop stop-opacity="1" stop-color="rgb(71.389771%, 41.043091%, 90.25116%)" offset="0.457031"/><stop stop-opacity="1" stop-color="rgb(71.530151%, 41.394043%, 90.228271%)" offset="0.460938"/><stop stop-opacity="1" stop-color="rgb(71.670532%, 41.744995%, 90.205383%)" offset="0.464844"/><stop stop-opacity="1" stop-color="rgb(71.812439%, 42.095947%, 90.182495%)" offset="0.46875"/><stop stop-opacity="1" stop-color="rgb(71.95282%, 42.446899%, 90.159607%)" offset="0.472656"/><stop stop-opacity="1" stop-color="rgb(72.094727%, 42.797852%, 90.136719%)" offset="0.476562"/><stop stop-opacity="1" stop-color="rgb(72.235107%, 43.147278%, 90.113831%)" offset="0.480469"/><stop stop-opacity="1" stop-color="rgb(72.377014%, 43.49823%, 90.090942%)" offset="0.484375"/><stop stop-opacity="1" stop-color="rgb(72.517395%, 43.849182%, 90.068054%)" offset="0.488281"/><stop stop-opacity="1" stop-color="rgb(72.657776%, 44.200134%, 90.045166%)" offset="0.492188"/><stop stop-opacity="1" stop-color="rgb(72.798157%, 44.551086%, 90.022278%)" offset="0.496094"/><stop stop-opacity="1" stop-color="rgb(72.940063%, 44.902039%, 89.99939%)" offset="0.5"/><stop stop-opacity="1" stop-color="rgb(73.080444%, 45.252991%, 89.976501%)" offset="0.503906"/><stop stop-opacity="1" stop-color="rgb(73.222351%, 45.603943%, 89.953613%)" offset="0.507812"/><stop stop-opacity="1" stop-color="rgb(73.362732%, 45.954895%, 89.930725%)" offset="0.511719"/><stop stop-opacity="1" stop-color="rgb(73.504639%, 46.305847%, 89.907837%)" offset="0.515625"/><stop stop-opacity="1" stop-color="rgb(73.64502%, 46.655273%, 89.883423%)" offset="0.519531"/><stop stop-opacity="1" stop-color="rgb(73.7854%, 47.006226%, 89.860535%)" offset="0.523438"/><stop stop-opacity="1" stop-color="rgb(73.925781%, 47.357178%, 89.837646%)" offset="0.527344"/><stop stop-opacity="1" stop-color="rgb(74.067688%, 47.70813%, 89.814758%)" offset="0.53125"/><stop stop-opacity="1" stop-color="rgb(74.208069%, 48.059082%, 89.79187%)" offset="0.535156"/><stop stop-opacity="1" stop-color="rgb(74.349976%, 48.410034%, 89.768982%)" offset="0.539062"/><stop stop-opacity="1" stop-color="rgb(74.490356%, 48.760986%, 89.746094%)" offset="0.542969"/><stop stop-opacity="1" stop-color="rgb(74.632263%, 49.111938%, 89.723206%)" offset="0.546875"/><stop stop-opacity="1" stop-color="rgb(74.772644%, 49.462891%, 89.700317%)" offset="0.550781"/><stop stop-opacity="1" stop-color="rgb(74.913025%, 49.813843%, 89.677429%)" offset="0.554688"/><stop stop-opacity="1" stop-color="rgb(75.053406%, 50.163269%, 89.654541%)" offset="0.558594"/><stop stop-opacity="1" stop-color="rgb(75.195312%, 50.514221%, 89.631653%)" offset="0.5625"/><stop stop-opacity="1" stop-color="rgb(75.335693%, 50.865173%, 89.608765%)" offset="0.566406"/><stop stop-opacity="1" stop-color="rgb(75.4776%, 51.216125%, 89.585876%)" offset="0.570312"/><stop stop-opacity="1" stop-color="rgb(75.617981%, 51.567078%, 89.562988%)" offset="0.574219"/><stop stop-opacity="1" stop-color="rgb(75.759888%, 51.91803%, 89.5401%)" offset="0.578125"/><stop stop-opacity="1" stop-color="rgb(75.900269%, 52.268982%, 89.517212%)" offset="0.582031"/><stop stop-opacity="1" stop-color="rgb(76.040649%, 52.619934%, 89.494324%)" offset="0.585937"/><stop stop-opacity="1" stop-color="rgb(76.18103%, 52.970886%, 89.46991%)" offset="0.589844"/><stop stop-opacity="1" stop-color="rgb(76.322937%, 53.321838%, 89.447021%)" offset="0.59375"/><stop stop-opacity="1" stop-color="rgb(76.463318%, 53.672791%, 89.424133%)" offset="0.597656"/><stop stop-opacity="1" stop-color="rgb(76.605225%, 54.023743%, 89.401245%)" offset="0.601562"/><stop stop-opacity="1" stop-color="rgb(76.745605%, 54.373169%, 89.378357%)" offset="0.605469"/><stop stop-opacity="1" stop-color="rgb(76.887512%, 54.724121%, 89.355469%)" offset="0.609375"/><stop stop-opacity="1" stop-color="rgb(77.027893%, 55.075073%, 89.332581%)" offset="0.613281"/><stop stop-opacity="1" stop-color="rgb(77.168274%, 55.426025%, 89.309692%)" offset="0.617187"/><stop stop-opacity="1" stop-color="rgb(77.308655%, 55.776978%, 89.286804%)" offset="0.621094"/><stop stop-opacity="1" stop-color="rgb(77.450562%, 56.12793%, 89.263916%)" offset="0.625"/><stop stop-opacity="1" stop-color="rgb(77.590942%, 56.478882%, 89.241028%)" offset="0.628906"/><stop stop-opacity="1" stop-color="rgb(77.732849%, 56.829834%, 89.21814%)" offset="0.632812"/><stop stop-opacity="1" stop-color="rgb(77.87323%, 57.180786%, 89.195251%)" offset="0.636719"/><stop stop-opacity="1" stop-color="rgb(78.015137%, 57.531738%, 89.172363%)" offset="0.640625"/><stop stop-opacity="1" stop-color="rgb(78.155518%, 57.881165%, 89.149475%)" offset="0.644531"/><stop stop-opacity="1" stop-color="rgb(78.295898%, 58.232117%, 89.126587%)" offset="0.648438"/><stop stop-opacity="1" stop-color="rgb(78.436279%, 58.583069%, 89.103699%)" offset="0.652344"/><stop stop-opacity="1" stop-color="rgb(78.578186%, 58.934021%, 89.080811%)" offset="0.65625"/><stop stop-opacity="1" stop-color="rgb(78.718567%, 59.284973%, 89.057922%)" offset="0.660156"/><stop stop-opacity="1" stop-color="rgb(78.860474%, 59.635925%, 89.035034%)" offset="0.664062"/><stop stop-opacity="1" stop-color="rgb(79.000854%, 59.986877%, 89.01062%)" offset="0.667969"/><stop stop-opacity="1" stop-color="rgb(79.142761%, 60.33783%, 88.987732%)" offset="0.671875"/><stop stop-opacity="1" stop-color="rgb(79.283142%, 60.688782%, 88.964844%)" offset="0.675781"/><stop stop-opacity="1" stop-color="rgb(79.423523%, 61.039734%, 88.941956%)" offset="0.679688"/><stop stop-opacity="1" stop-color="rgb(79.563904%, 61.38916%, 88.919067%)" offset="0.683594"/><stop stop-opacity="1" stop-color="rgb(79.705811%, 61.740112%, 88.896179%)" offset="0.6875"/><stop stop-opacity="1" stop-color="rgb(79.846191%, 62.091064%, 88.873291%)" offset="0.691406"/><stop stop-opacity="1" stop-color="rgb(79.988098%, 62.442017%, 88.850403%)" offset="0.695312"/><stop stop-opacity="1" stop-color="rgb(80.128479%, 62.792969%, 88.827515%)" offset="0.699219"/><stop stop-opacity="1" stop-color="rgb(80.270386%, 63.143921%, 88.804626%)" offset="0.703125"/><stop stop-opacity="1" stop-color="rgb(80.410767%, 63.494873%, 88.781738%)" offset="0.707031"/><stop stop-opacity="1" stop-color="rgb(80.551147%, 63.845825%, 88.75885%)" offset="0.710938"/><stop stop-opacity="1" stop-color="rgb(80.691528%, 64.196777%, 88.735962%)" offset="0.714844"/><stop stop-opacity="1" stop-color="rgb(80.833435%, 64.547729%, 88.713074%)" offset="0.71875"/><stop stop-opacity="1" stop-color="rgb(80.973816%, 64.898682%, 88.690186%)" offset="0.722656"/><stop stop-opacity="1" stop-color="rgb(81.115723%, 65.249634%, 88.667297%)" offset="0.726563"/><stop stop-opacity="1" stop-color="rgb(81.256104%, 65.59906%, 88.644409%)" offset="0.730469"/><stop stop-opacity="1" stop-color="rgb(81.39801%, 65.950012%, 88.621521%)" offset="0.734375"/><stop stop-opacity="1" stop-color="rgb(81.538391%, 66.300964%, 88.597107%)" offset="0.738281"/><stop stop-opacity="1" stop-color="rgb(81.678772%, 66.651917%, 88.574219%)" offset="0.742188"/><stop stop-opacity="1" stop-color="rgb(81.819153%, 67.002869%, 88.551331%)" offset="0.746094"/><stop stop-opacity="1" stop-color="rgb(81.96106%, 67.353821%, 88.528442%)" offset="0.75"/><stop stop-opacity="1" stop-color="rgb(82.10144%, 67.704773%, 88.505554%)" offset="0.753906"/><stop stop-opacity="1" stop-color="rgb(82.243347%, 68.055725%, 88.482666%)" offset="0.757812"/><stop stop-opacity="1" stop-color="rgb(82.383728%, 68.406677%, 88.459778%)" offset="0.761719"/><stop stop-opacity="1" stop-color="rgb(82.524109%, 68.757629%, 88.43689%)" offset="0.765625"/><stop stop-opacity="1" stop-color="rgb(82.66449%, 69.107056%, 88.414001%)" offset="0.769531"/><stop stop-opacity="1" stop-color="rgb(82.806396%, 69.458008%, 88.391113%)" offset="0.773437"/><stop stop-opacity="1" stop-color="rgb(82.946777%, 69.80896%, 88.368225%)" offset="0.777344"/><stop stop-opacity="1" stop-color="rgb(83.088684%, 70.159912%, 88.345337%)" offset="0.78125"/><stop stop-opacity="1" stop-color="rgb(83.229065%, 70.510864%, 88.322449%)" offset="0.785156"/><stop stop-opacity="1" stop-color="rgb(83.370972%, 70.861816%, 88.299561%)" offset="0.789062"/><stop stop-opacity="1" stop-color="rgb(83.511353%, 71.212769%, 88.276672%)" offset="0.792969"/><stop stop-opacity="1" stop-color="rgb(83.651733%, 71.563721%, 88.253784%)" offset="0.796875"/><stop stop-opacity="1" stop-color="rgb(83.792114%, 71.914673%, 88.230896%)" offset="0.800781"/><stop stop-opacity="1" stop-color="rgb(83.934021%, 72.265625%, 88.208008%)" offset="0.804688"/><stop stop-opacity="1" stop-color="rgb(84.074402%, 72.615051%, 88.183594%)" offset="0.808594"/><stop stop-opacity="1" stop-color="rgb(84.216309%, 72.966003%, 88.160706%)" offset="0.8125"/><stop stop-opacity="1" stop-color="rgb(84.356689%, 73.316956%, 88.137817%)" offset="0.816406"/><stop stop-opacity="1" stop-color="rgb(84.498596%, 73.667908%, 88.114929%)" offset="0.820312"/><stop stop-opacity="1" stop-color="rgb(84.638977%, 74.01886%, 88.092041%)" offset="0.824219"/><stop stop-opacity="1" stop-color="rgb(84.779358%, 74.369812%, 88.069153%)" offset="0.828125"/><stop stop-opacity="1" stop-color="rgb(84.919739%, 74.720764%, 88.046265%)" offset="0.832031"/><stop stop-opacity="1" stop-color="rgb(85.061646%, 75.071716%, 88.023376%)" offset="0.835938"/><stop stop-opacity="1" stop-color="rgb(85.202026%, 75.422668%, 88.000488%)" offset="0.839844"/><stop stop-opacity="1" stop-color="rgb(85.343933%, 75.773621%, 87.9776%)" offset="0.84375"/><stop stop-opacity="1" stop-color="rgb(85.484314%, 76.123047%, 87.954712%)" offset="0.847656"/><stop stop-opacity="1" stop-color="rgb(85.626221%, 76.473999%, 87.931824%)" offset="0.851562"/><stop stop-opacity="1" stop-color="rgb(85.766602%, 76.824951%, 87.908936%)" offset="0.855469"/><stop stop-opacity="1" stop-color="rgb(85.906982%, 77.175903%, 87.886047%)" offset="0.859375"/><stop stop-opacity="1" stop-color="rgb(86.047363%, 77.526855%, 87.863159%)" offset="0.863281"/><stop stop-opacity="1" stop-color="rgb(86.18927%, 77.877808%, 87.840271%)" offset="0.867188"/><stop stop-opacity="1" stop-color="rgb(86.329651%, 78.22876%, 87.817383%)" offset="0.871094"/><stop stop-opacity="1" stop-color="rgb(86.471558%, 78.579712%, 87.794495%)" offset="0.875"/><stop stop-opacity="1" stop-color="rgb(86.611938%, 78.930664%, 87.770081%)" offset="0.878906"/><stop stop-opacity="1" stop-color="rgb(86.753845%, 79.281616%, 87.747192%)" offset="0.882813"/><stop stop-opacity="1" stop-color="rgb(86.894226%, 79.632568%, 87.724304%)" offset="0.886719"/><stop stop-opacity="1" stop-color="rgb(87.034607%, 79.983521%, 87.701416%)" offset="0.890625"/><stop stop-opacity="1" stop-color="rgb(87.174988%, 80.332947%, 87.678528%)" offset="0.894531"/><stop stop-opacity="1" stop-color="rgb(87.316895%, 80.683899%, 87.65564%)" offset="0.898438"/><stop stop-opacity="1" stop-color="rgb(87.457275%, 81.034851%, 87.632751%)" offset="0.902344"/><stop stop-opacity="1" stop-color="rgb(87.599182%, 81.385803%, 87.609863%)" offset="0.90625"/><stop stop-opacity="1" stop-color="rgb(87.739563%, 81.736755%, 87.586975%)" offset="0.910156"/><stop stop-opacity="1" stop-color="rgb(87.88147%, 82.087708%, 87.564087%)" offset="0.914063"/><stop stop-opacity="1" stop-color="rgb(88.021851%, 82.43866%, 87.541199%)" offset="0.917969"/><stop stop-opacity="1" stop-color="rgb(88.162231%, 82.789612%, 87.518311%)" offset="0.921875"/><stop stop-opacity="1" stop-color="rgb(88.302612%, 83.140564%, 87.495422%)" offset="0.925781"/><stop stop-opacity="1" stop-color="rgb(88.444519%, 83.491516%, 87.472534%)" offset="0.929688"/><stop stop-opacity="1" stop-color="rgb(88.5849%, 83.840942%, 87.449646%)" offset="0.933594"/><stop stop-opacity="1" stop-color="rgb(88.726807%, 84.191895%, 87.426758%)" offset="0.9375"/><stop stop-opacity="1" stop-color="rgb(88.867188%, 84.542847%, 87.40387%)" offset="0.941406"/><stop stop-opacity="1" stop-color="rgb(89.009094%, 84.893799%, 87.380981%)" offset="0.945312"/><stop stop-opacity="1" stop-color="rgb(89.149475%, 85.244751%, 87.358093%)" offset="0.949219"/><stop stop-opacity="1" stop-color="rgb(89.289856%, 85.595703%, 87.335205%)" offset="0.953125"/><stop stop-opacity="1" stop-color="rgb(89.430237%, 85.946655%, 87.310791%)" offset="0.957031"/><stop stop-opacity="1" stop-color="rgb(89.572144%, 86.297607%, 87.287903%)" offset="0.960938"/><stop stop-opacity="1" stop-color="rgb(89.712524%, 86.64856%, 87.265015%)" offset="0.964844"/><stop stop-opacity="1" stop-color="rgb(89.854431%, 86.999512%, 87.242126%)" offset="0.96875"/><stop stop-opacity="1" stop-color="rgb(89.994812%, 87.348938%, 87.219238%)" offset="0.972656"/><stop stop-opacity="1" stop-color="rgb(90.136719%, 87.69989%, 87.19635%)" offset="0.976562"/><stop stop-opacity="1" stop-color="rgb(90.2771%, 88.050842%, 87.173462%)" offset="0.980469"/><stop stop-opacity="1" stop-color="rgb(90.41748%, 88.401794%, 87.150574%)" offset="0.984375"/><stop stop-opacity="1" stop-color="rgb(90.557861%, 88.752747%, 87.127686%)" offset="0.988281"/><stop stop-opacity="1" stop-color="rgb(90.699768%, 89.103699%, 87.104797%)" offset="0.992188"/><stop stop-opacity="1" stop-color="rgb(90.838623%, 89.451599%, 87.081909%)" offset="0.996094"/><stop stop-opacity="1" stop-color="rgb(90.979004%, 89.7995%, 87.059021%)" offset="1"/></linearGradient><clipPath id="f112b2c56b"><path d="M 11 28 L 43 28 L 43 77 L 11 77 Z M 11 28 " clip-rule="nonzero"/></clipPath><clipPath id="50eb029ee5"><path d="M 30.605469 81.96875 L 1.109375 52.472656 L 33.679688 19.902344 L 63.175781 49.398438 Z M 30.605469 81.96875 " clip-rule="nonzero"/></clipPath><clipPath id="ca22ef57d1"><path d="M 30.605469 81.96875 L 1.109375 52.472656 L 33.679688 19.902344 L 63.175781 49.398438 Z M 30.605469 81.96875 " clip-rule="nonzero"/></clipPath><clipPath id="d8f5a0d0e7"><path d="M 24.488281 41.410156 C 23.941406 41.960938 23.433594 42.546875 22.972656 43.167969 C 22.511719 43.789062 22.097656 44.445312 21.730469 45.128906 C 21.367188 45.8125 21.050781 46.519531 20.789062 47.25 C 20.53125 47.980469 20.324219 48.726562 20.171875 49.484375 C 20.019531 50.246094 19.925781 51.011719 19.886719 51.789062 C 19.851562 52.5625 19.867188 53.335938 19.945312 54.105469 C 20.019531 54.878906 20.152344 55.640625 20.339844 56.394531 C 20.53125 57.144531 20.773438 57.878906 21.070312 58.597656 C 21.367188 59.3125 21.714844 60.003906 22.113281 60.667969 C 22.511719 61.332031 22.957031 61.964844 23.449219 62.566406 C 23.941406 63.164062 24.472656 63.726562 25.046875 64.246094 C 25.625 64.765625 26.234375 65.242188 26.878906 65.671875 C 27.523438 66.105469 28.195312 66.484375 28.898438 66.816406 C 29.597656 67.148438 30.320312 67.425781 31.0625 67.652344 C 31.804688 67.875 32.558594 68.046875 33.324219 68.160156 C 34.09375 68.273438 34.863281 68.328125 35.640625 68.328125 L 35.636719 67.1875 C 34.675781 67.1875 33.726562 67.09375 32.785156 66.90625 C 31.84375 66.71875 30.925781 66.441406 30.039062 66.074219 C 29.152344 65.703125 28.308594 65.253906 27.511719 64.71875 C 26.714844 64.1875 25.972656 63.582031 25.296875 62.902344 C 24.617188 62.222656 24.011719 61.484375 23.476562 60.683594 C 22.941406 59.886719 22.492188 59.042969 22.125 58.15625 C 21.757812 57.265625 21.480469 56.351562 21.292969 55.410156 C 21.105469 54.46875 21.011719 53.515625 21.011719 52.558594 C 21.011719 51.597656 21.105469 50.644531 21.292969 49.703125 C 21.480469 48.761719 21.757812 47.847656 22.128906 46.960938 C 22.496094 46.070312 22.945312 45.230469 23.480469 44.429688 C 24.011719 43.632812 24.621094 42.894531 25.300781 42.214844 C 25.976562 41.535156 26.71875 40.929688 27.515625 40.394531 C 28.316406 39.863281 29.15625 39.410156 30.046875 39.042969 C 30.933594 38.675781 31.847656 38.398438 32.789062 38.210938 C 33.730469 38.023438 34.683594 37.929688 35.644531 37.929688 L 42.097656 37.929688 L 42.097656 36.789062 L 35.640625 36.796875 C 33.550781 36.789062 31.535156 37.1875 29.601562 37.988281 C 27.667969 38.785156 25.964844 39.929688 24.488281 41.410156 Z M 28.535156 45.457031 C 27.832031 46.160156 27.246094 46.949219 26.777344 47.824219 C 26.308594 48.703125 25.980469 49.628906 25.785156 50.601562 C 25.589844 51.574219 25.542969 52.558594 25.640625 53.546875 C 25.738281 54.535156 25.976562 55.488281 26.355469 56.40625 C 26.738281 57.324219 27.242188 58.167969 27.871094 58.933594 C 28.503906 59.703125 29.230469 60.363281 30.058594 60.914062 C 30.882812 61.464844 31.769531 61.886719 32.722656 62.175781 C 33.671875 62.464844 34.644531 62.609375 35.636719 62.609375 L 35.636719 61.464844 C 35.054688 61.464844 34.472656 61.40625 33.902344 61.292969 C 33.328125 61.179688 32.769531 61.011719 32.230469 60.789062 C 31.691406 60.5625 31.175781 60.289062 30.691406 59.964844 C 30.203125 59.640625 29.753906 59.269531 29.339844 58.859375 C 28.925781 58.445312 28.558594 57.996094 28.234375 57.507812 C 27.90625 57.023438 27.632812 56.507812 27.410156 55.96875 C 27.1875 55.429688 27.015625 54.871094 26.902344 54.296875 C 26.789062 53.726562 26.730469 53.144531 26.730469 52.5625 C 26.730469 51.976562 26.789062 51.398438 26.902344 50.824219 C 27.015625 50.25 27.1875 49.691406 27.410156 49.152344 C 27.632812 48.613281 27.910156 48.101562 28.234375 47.613281 C 28.558594 47.128906 28.925781 46.679688 29.339844 46.265625 C 29.753906 45.851562 30.203125 45.480469 30.691406 45.15625 C 31.175781 44.832031 31.691406 44.558594 32.230469 44.335938 C 32.769531 44.109375 33.328125 43.941406 33.902344 43.828125 C 34.476562 43.714844 35.054688 43.65625 35.640625 43.65625 L 42.101562 43.65625 L 42.101562 42.515625 L 35.636719 42.515625 C 34.304688 42.511719 33.023438 42.765625 31.792969 43.273438 C 30.558594 43.785156 29.476562 44.511719 28.535156 45.457031 Z M 26.507812 43.429688 C 25.605469 44.332031 24.855469 45.347656 24.253906 46.472656 C 23.652344 47.597656 23.226562 48.785156 22.980469 50.039062 C 22.730469 51.289062 22.667969 52.550781 22.792969 53.820312 C 22.917969 55.089844 23.226562 56.3125 23.714844 57.492188 C 24.199219 58.671875 24.851562 59.753906 25.660156 60.738281 C 26.46875 61.726562 27.402344 62.574219 28.464844 63.28125 C 29.523438 63.992188 30.664062 64.53125 31.882812 64.902344 C 33.105469 65.273438 34.355469 65.460938 35.628906 65.460938 L 35.636719 64.324219 C 34.878906 64.308594 34.125 64.214844 33.382812 64.050781 C 32.640625 63.886719 31.921875 63.652344 31.222656 63.347656 C 30.527344 63.042969 29.867188 62.675781 29.242188 62.242188 C 28.613281 61.8125 28.035156 61.324219 27.503906 60.777344 C 26.972656 60.234375 26.5 59.644531 26.082031 59.007812 C 25.667969 58.371094 25.316406 57.703125 25.027344 56.996094 C 24.742188 56.292969 24.527344 55.566406 24.378906 54.820312 C 24.234375 54.074219 24.160156 53.320312 24.160156 52.5625 C 24.160156 51.800781 24.234375 51.046875 24.378906 50.300781 C 24.527344 49.554688 24.742188 48.828125 25.03125 48.125 C 25.316406 47.421875 25.667969 46.75 26.085938 46.113281 C 26.5 45.476562 26.976562 44.886719 27.507812 44.34375 C 28.035156 43.800781 28.617188 43.3125 29.242188 42.878906 C 29.867188 42.445312 30.527344 42.078125 31.226562 41.773438 C 31.921875 41.46875 32.640625 41.234375 33.386719 41.070312 C 34.128906 40.90625 34.878906 40.816406 35.640625 40.796875 L 42.097656 40.796875 L 42.097656 39.65625 L 35.636719 39.65625 C 33.925781 39.648438 32.277344 39.976562 30.695312 40.632812 C 29.113281 41.285156 27.71875 42.222656 26.511719 43.433594 Z M 20.4375 37.359375 C 19.941406 37.859375 19.46875 38.378906 19.023438 38.925781 C 18.574219 39.46875 18.15625 40.03125 17.765625 40.617188 C 17.375 41.203125 17.015625 41.808594 16.683594 42.425781 C 16.351562 43.046875 16.050781 43.683594 15.78125 44.335938 C 15.511719 44.984375 15.273438 45.648438 15.070312 46.320312 C 14.867188 46.996094 14.695312 47.675781 14.558594 48.367188 C 14.421875 49.058594 14.320312 49.753906 14.25 50.453125 C 14.183594 51.152344 14.148438 51.855469 14.148438 52.558594 C 14.148438 53.261719 14.183594 53.964844 14.25 54.664062 C 14.320312 55.367188 14.425781 56.0625 14.5625 56.753906 C 14.699219 57.441406 14.871094 58.125 15.074219 58.796875 C 15.277344 59.472656 15.515625 60.132812 15.785156 60.785156 C 16.054688 61.433594 16.355469 62.070312 16.6875 62.691406 C 17.019531 63.3125 17.382812 63.914062 17.773438 64.5 C 18.164062 65.082031 18.582031 65.648438 19.03125 66.191406 C 19.476562 66.738281 19.949219 67.257812 20.445312 67.753906 C 21.441406 68.757812 22.523438 69.648438 23.695312 70.4375 C 24.871094 71.222656 26.109375 71.886719 27.410156 72.425781 C 28.714844 72.964844 30.058594 73.375 31.445312 73.648438 C 32.828125 73.921875 34.226562 74.054688 35.640625 74.050781 L 35.632812 72.914062 C 34.96875 72.914062 34.300781 72.882812 33.640625 72.816406 C 32.976562 72.75 32.316406 72.652344 31.664062 72.523438 C 31.011719 72.394531 30.363281 72.230469 29.726562 72.039062 C 29.089844 71.84375 28.460938 71.621094 27.847656 71.363281 C 27.230469 71.109375 26.628906 70.824219 26.042969 70.511719 C 25.453125 70.195312 24.882812 69.855469 24.328125 69.484375 C 23.773438 69.113281 23.242188 68.71875 22.726562 68.296875 C 22.210938 67.871094 21.71875 67.425781 21.246094 66.953125 C 20.773438 66.484375 20.328125 65.988281 19.90625 65.476562 C 19.480469 64.960938 19.085938 64.425781 18.714844 63.871094 C 18.34375 63.316406 18.003906 62.746094 17.6875 62.15625 C 17.375 61.570312 17.089844 60.96875 16.835938 60.351562 C 16.578125 59.738281 16.355469 59.109375 16.164062 58.472656 C 15.96875 57.835938 15.808594 57.191406 15.675781 56.535156 C 15.546875 55.882812 15.449219 55.222656 15.382812 54.5625 C 15.320312 53.898438 15.285156 53.234375 15.285156 52.566406 C 15.285156 51.898438 15.320312 51.234375 15.382812 50.570312 C 15.449219 49.910156 15.546875 49.25 15.675781 48.597656 C 15.808594 47.941406 15.96875 47.296875 16.164062 46.660156 C 16.355469 46.023438 16.578125 45.394531 16.835938 44.777344 C 17.089844 44.164062 17.375 43.5625 17.6875 42.972656 C 18.003906 42.386719 18.34375 41.816406 18.714844 41.261719 C 19.085938 40.707031 19.480469 40.171875 19.90625 39.65625 C 20.328125 39.140625 20.773438 38.648438 21.246094 38.179688 C 21.71875 37.707031 22.210938 37.257812 22.726562 36.835938 C 23.242188 36.414062 23.777344 36.015625 24.328125 35.648438 C 24.882812 35.277344 25.453125 34.933594 26.042969 34.621094 C 26.628906 34.304688 27.230469 34.023438 27.847656 33.765625 C 28.464844 33.511719 29.089844 33.289062 29.726562 33.09375 C 30.367188 32.902344 31.011719 32.738281 31.664062 32.609375 C 32.320312 32.480469 32.976562 32.378906 33.640625 32.316406 C 34.304688 32.25 34.96875 32.21875 35.632812 32.21875 L 42.085938 32.214844 L 42.085938 31.070312 L 35.636719 31.070312 C 34.226562 31.066406 32.828125 31.203125 31.441406 31.476562 C 30.058594 31.75 28.714844 32.15625 27.410156 32.695312 C 26.105469 33.234375 24.867188 33.898438 23.695312 34.683594 C 22.519531 35.46875 21.4375 36.363281 20.441406 37.363281 Z M 30.554688 47.476562 C 30.050781 47.980469 29.632812 48.542969 29.296875 49.171875 C 28.960938 49.796875 28.726562 50.457031 28.585938 51.15625 C 28.449219 51.851562 28.414062 52.554688 28.484375 53.261719 C 28.554688 53.96875 28.722656 54.648438 28.996094 55.304688 C 29.269531 55.964844 29.628906 56.566406 30.082031 57.113281 C 30.53125 57.664062 31.050781 58.136719 31.640625 58.53125 C 32.234375 58.925781 32.867188 59.226562 33.546875 59.433594 C 34.226562 59.640625 34.921875 59.742188 35.632812 59.742188 L 35.632812 58.601562 C 35.238281 58.601562 34.84375 58.5625 34.457031 58.484375 C 34.066406 58.40625 33.6875 58.292969 33.324219 58.140625 C 32.957031 57.988281 32.609375 57.800781 32.277344 57.582031 C 31.949219 57.363281 31.640625 57.109375 31.363281 56.832031 C 31.082031 56.550781 30.832031 56.246094 30.609375 55.914062 C 30.390625 55.585938 30.203125 55.238281 30.050781 54.871094 C 29.898438 54.503906 29.785156 54.125 29.707031 53.738281 C 29.628906 53.347656 29.59375 52.953125 29.59375 52.558594 C 29.59375 52.160156 29.628906 51.769531 29.707031 51.378906 C 29.785156 50.988281 29.898438 50.613281 30.050781 50.246094 C 30.203125 49.878906 30.390625 49.53125 30.609375 49.199219 C 30.832031 48.871094 31.082031 48.566406 31.363281 48.285156 C 31.640625 48.003906 31.949219 47.753906 32.277344 47.535156 C 32.609375 47.3125 32.957031 47.128906 33.324219 46.976562 C 33.6875 46.824219 34.066406 46.707031 34.457031 46.632812 C 34.84375 46.554688 35.238281 46.515625 35.632812 46.515625 L 42.101562 46.523438 L 42.097656 45.382812 L 35.632812 45.382812 C 34.679688 45.378906 33.765625 45.558594 32.886719 45.921875 C 32.003906 46.285156 31.230469 46.804688 30.558594 47.480469 Z M 22.460938 39.382812 C 21.8125 40.03125 21.214844 40.722656 20.667969 41.460938 C 20.125 42.195312 19.632812 42.96875 19.203125 43.777344 C 18.769531 44.585938 18.398438 45.417969 18.089844 46.28125 C 17.78125 47.144531 17.539062 48.027344 17.359375 48.925781 C 17.179688 49.824219 17.066406 50.730469 17.023438 51.644531 C 16.976562 52.5625 17 53.476562 17.089844 54.386719 C 17.179688 55.300781 17.335938 56.199219 17.558594 57.089844 C 17.78125 57.976562 18.066406 58.84375 18.417969 59.691406 C 18.769531 60.539062 19.179688 61.355469 19.652344 62.140625 C 20.121094 62.925781 20.648438 63.675781 21.230469 64.382812 C 21.8125 65.089844 22.441406 65.753906 23.121094 66.367188 C 23.800781 66.984375 24.519531 67.546875 25.285156 68.054688 C 26.046875 68.5625 26.839844 69.015625 27.667969 69.40625 C 28.496094 69.796875 29.351562 70.125 30.226562 70.390625 C 31.105469 70.65625 31.996094 70.855469 32.902344 70.992188 C 33.808594 71.125 34.722656 71.191406 35.636719 71.191406 L 35.636719 70.046875 C 35.070312 70.042969 34.5 70.011719 33.933594 69.949219 C 33.367188 69.890625 32.804688 69.800781 32.25 69.6875 C 31.691406 69.570312 31.140625 69.429688 30.597656 69.257812 C 30.050781 69.089844 29.519531 68.894531 28.992188 68.671875 C 28.46875 68.453125 27.957031 68.203125 27.457031 67.933594 C 26.957031 67.660156 26.46875 67.367188 25.996094 67.046875 C 25.527344 66.726562 25.070312 66.386719 24.632812 66.023438 C 24.195312 65.660156 23.773438 65.277344 23.375 64.871094 C 22.972656 64.46875 22.59375 64.042969 22.234375 63.601562 C 21.875 63.160156 21.535156 62.703125 21.222656 62.226562 C 20.90625 61.753906 20.617188 61.265625 20.347656 60.761719 C 20.082031 60.257812 19.839844 59.742188 19.621094 59.21875 C 19.40625 58.691406 19.214844 58.15625 19.050781 57.609375 C 18.886719 57.0625 18.75 56.511719 18.640625 55.953125 C 18.527344 55.394531 18.445312 54.832031 18.390625 54.265625 C 18.335938 53.699219 18.304688 53.128906 18.304688 52.5625 C 18.304688 51.992188 18.335938 51.421875 18.390625 50.855469 C 18.445312 50.289062 18.527344 49.726562 18.640625 49.167969 C 18.75 48.609375 18.886719 48.058594 19.050781 47.511719 C 19.214844 46.96875 19.40625 46.429688 19.625 45.90625 C 19.839844 45.378906 20.082031 44.863281 20.347656 44.359375 C 20.617188 43.855469 20.90625 43.367188 21.222656 42.894531 C 21.535156 42.417969 21.875 41.960938 22.234375 41.519531 C 22.59375 41.078125 22.972656 40.65625 23.375 40.25 C 23.773438 39.847656 24.195312 39.460938 24.632812 39.097656 C 25.070312 38.734375 25.527344 38.394531 26 38.074219 C 26.46875 37.757812 26.957031 37.460938 27.457031 37.1875 C 27.957031 36.917969 28.46875 36.671875 28.996094 36.449219 C 29.519531 36.226562 30.054688 36.03125 30.597656 35.863281 C 31.140625 35.695312 31.691406 35.550781 32.25 35.4375 C 32.808594 35.320312 33.367188 35.234375 33.933594 35.171875 C 34.5 35.113281 35.070312 35.078125 35.640625 35.074219 L 42.089844 35.074219 L 42.089844 33.933594 L 35.636719 33.933594 C 33.167969 33.925781 30.789062 34.394531 28.503906 35.339844 C 26.222656 36.285156 24.207031 37.636719 22.464844 39.390625 Z M 11.285156 52.5625 C 11.285156 53.359375 11.324219 54.152344 11.402344 54.949219 C 11.480469 55.742188 11.597656 56.53125 11.753906 57.3125 C 11.910156 58.09375 12.101562 58.867188 12.335938 59.628906 C 12.566406 60.394531 12.835938 61.144531 13.140625 61.878906 C 13.445312 62.617188 13.785156 63.335938 14.160156 64.042969 C 14.539062 64.746094 14.945312 65.429688 15.390625 66.089844 C 15.832031 66.753906 16.308594 67.394531 16.8125 68.011719 C 17.320312 68.628906 17.855469 69.21875 18.417969 69.78125 C 18.984375 70.34375 19.574219 70.878906 20.1875 71.386719 C 20.804688 71.890625 21.445312 72.367188 22.109375 72.808594 C 22.773438 73.253906 23.457031 73.664062 24.160156 74.039062 C 24.863281 74.414062 25.582031 74.753906 26.320312 75.058594 C 27.054688 75.367188 27.804688 75.632812 28.570312 75.867188 C 29.332031 76.097656 30.105469 76.289062 30.886719 76.445312 C 31.671875 76.601562 32.457031 76.71875 33.25 76.796875 C 34.046875 76.875 34.839844 76.914062 35.640625 76.914062 L 35.636719 75.769531 C 34.878906 75.769531 34.121094 75.734375 33.363281 75.660156 C 32.605469 75.585938 31.855469 75.472656 31.109375 75.324219 C 30.363281 75.175781 29.628906 74.992188 28.902344 74.773438 C 28.171875 74.550781 27.457031 74.296875 26.757812 74.003906 C 26.054688 73.714844 25.367188 73.390625 24.695312 73.03125 C 24.027344 72.671875 23.375 72.28125 22.742188 71.859375 C 22.109375 71.4375 21.5 70.984375 20.914062 70.503906 C 20.328125 70.019531 19.761719 69.511719 19.226562 68.972656 C 18.6875 68.4375 18.179688 67.875 17.695312 67.285156 C 17.214844 66.699219 16.761719 66.089844 16.339844 65.457031 C 15.917969 64.824219 15.527344 64.171875 15.167969 63.503906 C 14.808594 62.832031 14.484375 62.144531 14.195312 61.445312 C 13.902344 60.742188 13.648438 60.027344 13.429688 59.300781 C 13.207031 58.570312 13.023438 57.835938 12.875 57.089844 C 12.726562 56.34375 12.613281 55.59375 12.539062 54.835938 C 12.464844 54.082031 12.429688 53.320312 12.429688 52.5625 C 12.429688 51.800781 12.464844 51.042969 12.539062 50.285156 C 12.613281 49.53125 12.726562 48.78125 12.875 48.035156 C 13.023438 47.289062 13.207031 46.550781 13.429688 45.824219 C 13.648438 45.097656 13.90625 44.382812 14.195312 43.679688 C 14.484375 42.976562 14.8125 42.289062 15.167969 41.621094 C 15.527344 40.949219 15.917969 40.300781 16.339844 39.667969 C 16.761719 39.035156 17.214844 38.425781 17.695312 37.835938 C 18.179688 37.25 18.6875 36.6875 19.226562 36.148438 C 19.765625 35.613281 20.328125 35.101562 20.914062 34.621094 C 21.5 34.136719 22.113281 33.683594 22.742188 33.261719 C 23.375 32.839844 24.027344 32.449219 24.699219 32.09375 C 25.367188 31.734375 26.054688 31.410156 26.757812 31.117188 C 27.457031 30.828125 28.175781 30.570312 28.902344 30.351562 C 29.628906 30.128906 30.363281 29.945312 31.109375 29.796875 C 31.855469 29.648438 32.605469 29.539062 33.363281 29.464844 C 34.121094 29.390625 34.878906 29.351562 35.640625 29.351562 L 42.082031 29.351562 L 42.082031 28.210938 L 35.636719 28.210938 C 34.839844 28.210938 34.042969 28.25 33.25 28.328125 C 32.457031 28.40625 31.667969 28.523438 30.886719 28.675781 C 30.105469 28.832031 29.332031 29.027344 28.570312 29.257812 C 27.804688 29.488281 27.054688 29.757812 26.320312 30.0625 C 25.582031 30.367188 24.863281 30.710938 24.160156 31.085938 C 23.457031 31.460938 22.773438 31.871094 22.109375 32.3125 C 21.445312 32.757812 20.804688 33.230469 20.191406 33.738281 C 19.574219 34.242188 18.984375 34.777344 18.417969 35.34375 C 17.855469 35.90625 17.320312 36.496094 16.8125 37.113281 C 16.308594 37.730469 15.832031 38.367188 15.390625 39.03125 C 14.949219 39.695312 14.539062 40.378906 14.160156 41.082031 C 13.785156 41.785156 13.445312 42.503906 13.140625 43.242188 C 12.835938 43.980469 12.566406 44.730469 12.335938 45.492188 C 12.101562 46.253906 11.910156 47.027344 11.753906 47.808594 C 11.597656 48.59375 11.480469 49.378906 11.402344 50.175781 C 11.324219 50.96875 11.285156 51.761719 11.285156 52.5625 Z M 11.285156 52.5625 " clip-rule="nonzero"/></clipPath><linearGradient x1="-4011.199874" gradientTransform="matrix(0.150873, 0, 0, 0.150873, 616.598706, -493.450346)" y1="3456.828452" x2="-3759.279432" gradientUnits="userSpaceOnUse" y2="3736.739126" id="76b145f557"><stop stop-opacity="1" stop-color="rgb(63.139343%, 0%, 92.939758%)" offset="0"/><stop stop-opacity="1" stop-color="rgb(63.139343%, 0%, 92.939758%)" offset="0.25"/><stop stop-opacity="1" stop-color="rgb(63.139343%, 0%, 92.939758%)" offset="0.36283"/><stop stop-opacity="1" stop-color="rgb(63.139343%, 0%, 92.939758%)" offset="0.375"/><stop stop-opacity="1" stop-color="rgb(63.139343%, 0%, 92.939758%)" offset="0.4375"/><stop stop-opacity="1" stop-color="rgb(63.041687%, 0.0335693%, 92.950439%)" offset="0.46875"/><stop stop-opacity="1" stop-color="rgb(61.798096%, 0.465393%, 93.089294%)" offset="0.472656"/><stop stop-opacity="1" stop-color="rgb(60.653687%, 0.863647%, 93.217468%)" offset="0.476563"/><stop stop-opacity="1" stop-color="rgb(59.509277%, 1.261902%, 93.345642%)" offset="0.480469"/><stop stop-opacity="1" stop-color="rgb(58.364868%, 1.660156%, 93.473816%)" offset="0.484375"/><stop stop-opacity="1" stop-color="rgb(57.218933%, 2.058411%, 93.600464%)" offset="0.488281"/><stop stop-opacity="1" stop-color="rgb(56.074524%, 2.456665%, 93.728638%)" offset="0.492188"/><stop stop-opacity="1" stop-color="rgb(54.928589%, 2.854919%, 93.856812%)" offset="0.496094"/><stop stop-opacity="1" stop-color="rgb(53.78418%, 3.253174%, 93.984985%)" offset="0.5"/><stop stop-opacity="1" stop-color="rgb(52.639771%, 3.651428%, 94.113159%)" offset="0.503906"/><stop stop-opacity="1" stop-color="rgb(51.495361%, 4.049683%, 94.241333%)" offset="0.507812"/><stop stop-opacity="1" stop-color="rgb(50.349426%, 4.447937%, 94.369507%)" offset="0.511719"/><stop stop-opacity="1" stop-color="rgb(49.205017%, 4.846191%, 94.497681%)" offset="0.515625"/><stop stop-opacity="1" stop-color="rgb(48.059082%, 5.24292%, 94.625854%)" offset="0.519531"/><stop stop-opacity="1" stop-color="rgb(46.914673%, 5.641174%, 94.754028%)" offset="0.523438"/><stop stop-opacity="1" stop-color="rgb(45.770264%, 6.039429%, 94.880676%)" offset="0.527344"/><stop stop-opacity="1" stop-color="rgb(44.625854%, 6.437683%, 95.00885%)" offset="0.53125"/><stop stop-opacity="1" stop-color="rgb(43.479919%, 6.835938%, 95.137024%)" offset="0.535156"/><stop stop-opacity="1" stop-color="rgb(42.33551%, 7.234192%, 95.265198%)" offset="0.539063"/><stop stop-opacity="1" stop-color="rgb(41.191101%, 7.632446%, 95.393372%)" offset="0.542969"/><stop stop-opacity="1" stop-color="rgb(40.046692%, 8.030701%, 95.521545%)" offset="0.546875"/><stop stop-opacity="1" stop-color="rgb(38.900757%, 8.428955%, 95.649719%)" offset="0.550781"/><stop stop-opacity="1" stop-color="rgb(37.756348%, 8.827209%, 95.777893%)" offset="0.554688"/><stop stop-opacity="1" stop-color="rgb(36.610413%, 9.225464%, 95.906067%)" offset="0.558594"/><stop stop-opacity="1" stop-color="rgb(35.466003%, 9.623718%, 96.034241%)" offset="0.5625"/><stop stop-opacity="1" stop-color="rgb(34.321594%, 10.021973%, 96.160889%)" offset="0.566406"/><stop stop-opacity="1" stop-color="rgb(33.177185%, 10.420227%, 96.289062%)" offset="0.570313"/><stop stop-opacity="1" stop-color="rgb(32.03125%, 10.818481%, 96.417236%)" offset="0.574219"/><stop stop-opacity="1" stop-color="rgb(30.886841%, 11.216736%, 96.54541%)" offset="0.578125"/><stop stop-opacity="1" stop-color="rgb(29.740906%, 11.61499%, 96.673584%)" offset="0.582031"/><stop stop-opacity="1" stop-color="rgb(28.596497%, 12.013245%, 96.801758%)" offset="0.585938"/><stop stop-opacity="1" stop-color="rgb(27.452087%, 12.411499%, 96.929932%)" offset="0.589844"/><stop stop-opacity="1" stop-color="rgb(26.307678%, 12.809753%, 97.058105%)" offset="0.59375"/><stop stop-opacity="1" stop-color="rgb(25.161743%, 13.208008%, 97.184753%)" offset="0.597656"/><stop stop-opacity="1" stop-color="rgb(24.017334%, 13.606262%, 97.312927%)" offset="0.601563"/><stop stop-opacity="1" stop-color="rgb(22.871399%, 14.004517%, 97.441101%)" offset="0.605469"/><stop stop-opacity="1" stop-color="rgb(21.72699%, 14.402771%, 97.569275%)" offset="0.609375"/><stop stop-opacity="1" stop-color="rgb(20.582581%, 14.801025%, 97.697449%)" offset="0.613281"/><stop stop-opacity="1" stop-color="rgb(19.438171%, 15.19928%, 97.825623%)" offset="0.617188"/><stop stop-opacity="1" stop-color="rgb(18.292236%, 15.596008%, 97.953796%)" offset="0.621094"/><stop stop-opacity="1" stop-color="rgb(17.147827%, 15.994263%, 98.08197%)" offset="0.625"/><stop stop-opacity="1" stop-color="rgb(16.001892%, 16.392517%, 98.210144%)" offset="0.628906"/><stop stop-opacity="1" stop-color="rgb(14.857483%, 16.790771%, 98.338318%)" offset="0.632812"/><stop stop-opacity="1" stop-color="rgb(13.713074%, 17.189026%, 98.464966%)" offset="0.636719"/><stop stop-opacity="1" stop-color="rgb(12.568665%, 17.58728%, 98.59314%)" offset="0.640625"/><stop stop-opacity="1" stop-color="rgb(11.422729%, 17.985535%, 98.721313%)" offset="0.644531"/><stop stop-opacity="1" stop-color="rgb(10.27832%, 18.383789%, 98.849487%)" offset="0.648438"/><stop stop-opacity="1" stop-color="rgb(9.132385%, 18.782043%, 98.977661%)" offset="0.652344"/><stop stop-opacity="1" stop-color="rgb(7.987976%, 19.180298%, 99.105835%)" offset="0.65625"/><stop stop-opacity="1" stop-color="rgb(6.843567%, 19.578552%, 99.234009%)" offset="0.660156"/><stop stop-opacity="1" stop-color="rgb(5.699158%, 19.976807%, 99.362183%)" offset="0.664063"/><stop stop-opacity="1" stop-color="rgb(4.553223%, 20.375061%, 99.490356%)" offset="0.667969"/><stop stop-opacity="1" stop-color="rgb(3.408813%, 20.773315%, 99.61853%)" offset="0.671875"/><stop stop-opacity="1" stop-color="rgb(2.264404%, 21.17157%, 99.745178%)" offset="0.675781"/><stop stop-opacity="1" stop-color="rgb(1.119995%, 21.569824%, 99.873352%)" offset="0.679688"/><stop stop-opacity="1" stop-color="rgb(0.559998%, 21.763611%, 99.935913%)" offset="0.683594"/><stop stop-opacity="1" stop-color="rgb(0%, 21.958923%, 100%)" offset="0.6875"/><stop stop-opacity="1" stop-color="rgb(0%, 21.958923%, 100%)" offset="0.75"/><stop stop-opacity="1" stop-color="rgb(0%, 21.958923%, 100%)" offset="1"/></linearGradient><clipPath id="856c8e1b63"><path d="M 35 0.601562 L 60 0.601562 L 60 77 L 35 77 Z M 35 0.601562 " clip-rule="nonzero"/></clipPath><clipPath id="453f556c7f"><path d="M 40.558594 81.976562 L 0.613281 42.035156 L 41.789062 0.863281 L 81.730469 40.804688 Z M 40.558594 81.976562 " clip-rule="nonzero"/></clipPath><clipPath id="85843727f1"><path d="M 40.558594 81.976562 L 0.613281 42.035156 L 41.789062 0.863281 L 81.730469 40.804688 Z M 40.558594 81.976562 " clip-rule="nonzero"/></clipPath><clipPath id="6be863e74b"><path d="M 35.503906 61.496094 L 35.503906 62.640625 C 36.164062 62.636719 36.816406 62.574219 37.460938 62.445312 C 38.105469 62.316406 38.734375 62.125 39.339844 61.871094 C 39.949219 61.621094 40.527344 61.308594 41.074219 60.945312 C 41.621094 60.578125 42.128906 60.164062 42.59375 59.695312 C 43.058594 59.230469 43.476562 58.726562 43.84375 58.175781 C 44.207031 57.628906 44.515625 57.050781 44.769531 56.445312 C 45.023438 55.835938 45.210938 55.210938 45.339844 54.5625 C 45.46875 53.917969 45.535156 53.265625 45.535156 52.605469 L 45.535156 4.917969 L 44.394531 3.777344 L 44.394531 52.605469 C 44.394531 53.191406 44.335938 53.769531 44.222656 54.339844 C 44.109375 54.914062 43.9375 55.46875 43.714844 56.007812 C 43.492188 56.546875 43.21875 57.058594 42.894531 57.542969 C 42.570312 58.027344 42.199219 58.476562 41.789062 58.890625 C 41.375 59.304688 40.925781 59.671875 40.441406 59.996094 C 39.957031 60.320312 39.445312 60.59375 38.90625 60.816406 C 38.367188 61.042969 37.8125 61.210938 37.238281 61.324219 C 36.667969 61.4375 36.089844 61.496094 35.503906 61.496094 Z M 41.53125 52.613281 C 41.53125 53.007812 41.492188 53.398438 41.417969 53.789062 C 41.339844 54.175781 41.222656 54.554688 41.070312 54.917969 C 40.921875 55.285156 40.734375 55.632812 40.515625 55.960938 C 40.292969 56.289062 40.042969 56.59375 39.765625 56.875 C 39.484375 57.15625 39.179688 57.40625 38.851562 57.625 C 38.519531 57.84375 38.171875 58.03125 37.808594 58.183594 C 37.441406 58.335938 37.066406 58.449219 36.675781 58.527344 C 36.289062 58.605469 35.898438 58.644531 35.5 58.644531 L 35.5 59.785156 C 35.972656 59.785156 36.4375 59.738281 36.898438 59.644531 C 37.359375 59.554688 37.808594 59.417969 38.246094 59.238281 C 38.679688 59.058594 39.09375 58.835938 39.484375 58.574219 C 39.875 58.3125 40.238281 58.015625 40.570312 57.683594 C 40.902344 57.347656 41.199219 56.988281 41.460938 56.59375 C 41.726562 56.203125 41.945312 55.789062 42.125 55.355469 C 42.308594 54.921875 42.441406 54.472656 42.535156 54.011719 C 42.628906 53.546875 42.675781 53.082031 42.675781 52.613281 L 42.675781 2.058594 L 41.539062 0.917969 Z M 43.8125 60.914062 C 42.710938 62.019531 41.441406 62.871094 40.003906 63.464844 C 38.5625 64.0625 37.0625 64.359375 35.503906 64.355469 L 35.503906 65.496094 C 36.351562 65.496094 37.1875 65.414062 38.019531 65.246094 C 38.847656 65.082031 39.65625 64.839844 40.4375 64.515625 C 41.21875 64.191406 41.960938 63.792969 42.664062 63.324219 C 43.371094 62.851562 44.019531 62.320312 44.617188 61.71875 C 45.21875 61.121094 45.75 60.46875 46.222656 59.765625 C 46.691406 59.0625 47.089844 58.320312 47.414062 57.539062 C 47.738281 56.757812 47.980469 55.949219 48.148438 55.121094 C 48.3125 54.289062 48.394531 53.453125 48.394531 52.605469 L 48.394531 7.773438 L 47.25 6.632812 L 47.25 52.605469 C 47.253906 54.164062 46.960938 55.664062 46.363281 57.105469 C 45.765625 58.546875 44.914062 59.816406 43.8125 60.914062 Z M 51.890625 68.996094 C 50.816406 70.074219 49.648438 71.039062 48.382812 71.886719 C 47.121094 72.734375 45.785156 73.449219 44.378906 74.03125 C 42.972656 74.613281 41.523438 75.050781 40.027344 75.347656 C 38.535156 75.640625 37.027344 75.785156 35.503906 75.78125 L 35.503906 76.921875 C 36.300781 76.921875 37.09375 76.882812 37.886719 76.804688 C 38.679688 76.726562 39.464844 76.609375 40.246094 76.457031 C 41.027344 76.300781 41.800781 76.105469 42.5625 75.875 C 43.324219 75.644531 44.074219 75.378906 44.808594 75.074219 C 45.546875 74.765625 46.265625 74.425781 46.96875 74.050781 C 47.667969 73.675781 48.351562 73.269531 49.015625 72.824219 C 49.675781 72.382812 50.316406 71.910156 50.929688 71.402344 C 51.546875 70.898438 52.136719 70.363281 52.699219 69.800781 C 53.261719 69.238281 53.796875 68.648438 54.300781 68.03125 C 54.804688 67.417969 55.28125 66.777344 55.722656 66.117188 C 56.164062 65.453125 56.574219 64.773438 56.949219 64.070312 C 57.324219 63.367188 57.664062 62.648438 57.96875 61.910156 C 58.273438 61.175781 58.542969 60.425781 58.773438 59.664062 C 59.003906 58.902344 59.199219 58.132812 59.355469 57.351562 C 59.507812 56.570312 59.625 55.78125 59.703125 54.988281 C 59.78125 54.195312 59.820312 53.402344 59.820312 52.605469 L 59.820312 19.203125 L 58.679688 18.0625 L 58.679688 52.605469 C 58.683594 54.128906 58.539062 55.636719 58.242188 57.132812 C 57.949219 58.625 57.507812 60.074219 56.925781 61.480469 C 56.34375 62.886719 55.628906 64.222656 54.78125 65.488281 C 53.933594 66.753906 52.972656 67.921875 51.890625 68.996094 Z M 49.867188 66.972656 C 48.925781 67.917969 47.902344 68.761719 46.796875 69.503906 C 45.6875 70.25 44.515625 70.875 43.285156 71.386719 C 42.050781 71.898438 40.78125 72.285156 39.472656 72.542969 C 38.164062 72.804688 36.84375 72.933594 35.507812 72.929688 L 35.507812 74.070312 C 36.210938 74.070312 36.910156 74.035156 37.613281 73.96875 C 38.3125 73.898438 39.003906 73.796875 39.695312 73.65625 C 40.382812 73.519531 41.066406 73.351562 41.738281 73.148438 C 42.410156 72.941406 43.070312 72.707031 43.71875 72.4375 C 44.371094 72.167969 45.003906 71.867188 45.625 71.535156 C 46.246094 71.207031 46.847656 70.84375 47.429688 70.453125 C 48.015625 70.0625 48.578125 69.644531 49.121094 69.199219 C 49.664062 68.753906 50.1875 68.28125 50.683594 67.785156 C 51.179688 67.289062 51.652344 66.769531 52.097656 66.226562 C 52.542969 65.679688 52.960938 65.117188 53.351562 64.535156 C 53.742188 63.949219 54.101562 63.347656 54.433594 62.726562 C 54.765625 62.105469 55.066406 61.472656 55.335938 60.824219 C 55.605469 60.171875 55.839844 59.511719 56.042969 58.839844 C 56.25 58.167969 56.417969 57.488281 56.554688 56.796875 C 56.691406 56.109375 56.796875 55.414062 56.863281 54.714844 C 56.933594 54.015625 56.96875 53.3125 56.96875 52.609375 L 56.96875 16.347656 L 55.824219 15.203125 L 55.828125 52.613281 C 55.828125 53.945312 55.703125 55.269531 55.441406 56.578125 C 55.183594 57.886719 54.796875 59.15625 54.289062 60.390625 C 53.777344 61.621094 53.148438 62.792969 52.40625 63.902344 C 51.664062 65.007812 50.816406 66.035156 49.871094 66.972656 Z M 47.84375 64.945312 C 46.207031 66.589844 44.320312 67.851562 42.179688 68.738281 C 40.039062 69.625 37.808594 70.0625 35.492188 70.054688 L 35.503906 71.207031 C 36.113281 71.207031 36.722656 71.179688 37.328125 71.121094 C 37.933594 71.058594 38.535156 70.96875 39.132812 70.851562 C 39.730469 70.734375 40.320312 70.585938 40.902344 70.40625 C 41.488281 70.230469 42.058594 70.027344 42.621094 69.792969 C 43.1875 69.558594 43.734375 69.300781 44.273438 69.011719 C 44.8125 68.726562 45.332031 68.414062 45.839844 68.074219 C 46.347656 67.734375 46.835938 67.375 47.304688 66.988281 C 47.777344 66.601562 48.226562 66.191406 48.660156 65.761719 C 49.089844 65.328125 49.496094 64.878906 49.882812 64.40625 C 50.269531 63.9375 50.632812 63.449219 50.972656 62.941406 C 51.308594 62.433594 51.625 61.914062 51.910156 61.375 C 52.199219 60.839844 52.457031 60.289062 52.691406 59.726562 C 52.925781 59.164062 53.128906 58.589844 53.304688 58.007812 C 53.484375 57.421875 53.628906 56.832031 53.75 56.234375 C 53.867188 55.636719 53.957031 55.035156 54.015625 54.429688 C 54.078125 53.824219 54.105469 53.214844 54.105469 52.605469 L 54.109375 13.488281 L 52.964844 12.347656 L 52.964844 52.613281 C 52.972656 54.929688 52.53125 57.15625 51.644531 59.296875 C 50.757812 61.433594 49.492188 63.320312 47.851562 64.953125 Z M 35.503906 67.210938 L 35.503906 68.351562 C 36.539062 68.351562 37.5625 68.25 38.574219 68.046875 C 39.585938 67.84375 40.570312 67.542969 41.523438 67.148438 C 42.480469 66.753906 43.386719 66.265625 44.246094 65.691406 C 45.105469 65.117188 45.898438 64.464844 46.628906 63.734375 C 47.359375 63.003906 48.011719 62.210938 48.585938 61.351562 C 49.160156 60.492188 49.644531 59.585938 50.042969 58.632812 C 50.4375 57.675781 50.738281 56.695312 50.941406 55.679688 C 51.144531 54.667969 51.246094 53.644531 51.246094 52.613281 L 51.246094 10.640625 L 50.105469 9.496094 L 50.109375 52.605469 C 50.109375 53.566406 50.015625 54.515625 49.828125 55.457031 C 49.640625 56.394531 49.363281 57.308594 48.996094 58.195312 C 48.628906 59.078125 48.175781 59.921875 47.644531 60.71875 C 47.113281 61.515625 46.507812 62.253906 45.828125 62.929688 C 45.152344 63.609375 44.414062 64.214844 43.617188 64.746094 C 42.820312 65.28125 41.976562 65.730469 41.09375 66.097656 C 40.207031 66.464844 39.292969 66.742188 38.351562 66.929688 C 37.414062 67.117188 36.464844 67.210938 35.503906 67.210938 Z M 35.503906 67.210938 " clip-rule="nonzero"/></clipPath><linearGradient x1="-50.471874" gradientTransform="matrix(-0.106526, -0.106526, 0.106526, -0.106526, 40.54028, 81.959442)" y1="-13.517599" x2="370.332589" gradientUnits="userSpaceOnUse" y2="498.601183" id="cf5c23590d"><stop stop-opacity="1" stop-color="rgb(0%, 21.958923%, 100%)" offset="0"/><stop stop-opacity="1" stop-color="rgb(0%, 21.958923%, 100%)" offset="0.25"/><stop stop-opacity="1" stop-color="rgb(0%, 21.958923%, 100%)" offset="0.3125"/><stop stop-opacity="1" stop-color="rgb(0%, 21.958923%, 100%)" offset="0.320312"/><stop stop-opacity="1" stop-color="rgb(0%, 22.254944%, 100%)" offset="0.324219"/><stop stop-opacity="1" stop-color="rgb(0%, 22.55249%, 100%)" offset="0.328125"/><stop stop-opacity="1" stop-color="rgb(0%, 23.072815%, 100%)" offset="0.332031"/><stop stop-opacity="1" stop-color="rgb(0%, 23.594666%, 100%)" offset="0.335938"/><stop stop-opacity="1" stop-color="rgb(0%, 24.11499%, 100%)" offset="0.339844"/><stop stop-opacity="1" stop-color="rgb(0%, 24.636841%, 100%)" offset="0.34375"/><stop stop-opacity="1" stop-color="rgb(0%, 25.157166%, 100%)" offset="0.347656"/><stop stop-opacity="1" stop-color="rgb(0%, 25.67749%, 100%)" offset="0.351562"/><stop stop-opacity="1" stop-color="rgb(0%, 26.197815%, 100%)" offset="0.355469"/><stop stop-opacity="1" stop-color="rgb(0%, 26.719666%, 100%)" offset="0.359375"/><stop stop-opacity="1" stop-color="rgb(0%, 27.23999%, 100%)" offset="0.363281"/><stop stop-opacity="1" stop-color="rgb(0%, 27.760315%, 100%)" offset="0.367188"/><stop stop-opacity="1" stop-color="rgb(0%, 28.28064%, 100%)" offset="0.371094"/><stop stop-opacity="1" stop-color="rgb(0%, 28.80249%, 100%)" offset="0.375"/><stop stop-opacity="1" stop-color="rgb(0%, 29.322815%, 100%)" offset="0.378906"/><stop stop-opacity="1" stop-color="rgb(0%, 29.84314%, 100%)" offset="0.382813"/><stop stop-opacity="1" stop-color="rgb(0%, 30.363464%, 100%)" offset="0.386719"/><stop stop-opacity="1" stop-color="rgb(0%, 30.885315%, 100%)" offset="0.390625"/><stop stop-opacity="1" stop-color="rgb(0%, 31.40564%, 100%)" offset="0.394531"/><stop stop-opacity="1" stop-color="rgb(0%, 31.925964%, 100%)" offset="0.398438"/><stop stop-opacity="1" stop-color="rgb(0%, 32.446289%, 100%)" offset="0.402344"/><stop stop-opacity="1" stop-color="rgb(0%, 32.96814%, 100%)" offset="0.40625"/><stop stop-opacity="1" stop-color="rgb(0%, 33.488464%, 100%)" offset="0.410156"/><stop stop-opacity="1" stop-color="rgb(0%, 34.010315%, 100%)" offset="0.414063"/><stop stop-opacity="1" stop-color="rgb(0%, 34.53064%, 100%)" offset="0.417969"/><stop stop-opacity="1" stop-color="rgb(0%, 35.050964%, 100%)" offset="0.421875"/><stop stop-opacity="1" stop-color="rgb(0%, 35.571289%, 100%)" offset="0.425781"/><stop stop-opacity="1" stop-color="rgb(0%, 36.09314%, 100%)" offset="0.429688"/><stop stop-opacity="1" stop-color="rgb(0%, 36.613464%, 100%)" offset="0.433594"/><stop stop-opacity="1" stop-color="rgb(0%, 37.133789%, 100%)" offset="0.4375"/><stop stop-opacity="1" stop-color="rgb(0%, 37.654114%, 100%)" offset="0.441406"/><stop stop-opacity="1" stop-color="rgb(0%, 38.175964%, 100%)" offset="0.445312"/><stop stop-opacity="1" stop-color="rgb(0%, 38.696289%, 100%)" offset="0.449219"/><stop stop-opacity="1" stop-color="rgb(0%, 39.216614%, 100%)" offset="0.453125"/><stop stop-opacity="1" stop-color="rgb(0%, 39.736938%, 100%)" offset="0.457031"/><stop stop-opacity="1" stop-color="rgb(0%, 40.258789%, 100%)" offset="0.460938"/><stop stop-opacity="1" stop-color="rgb(0%, 40.779114%, 100%)" offset="0.464844"/><stop stop-opacity="1" stop-color="rgb(0%, 41.300964%, 100%)" offset="0.46875"/><stop stop-opacity="1" stop-color="rgb(0%, 41.821289%, 100%)" offset="0.472656"/><stop stop-opacity="1" stop-color="rgb(0%, 42.341614%, 100%)" offset="0.476562"/><stop stop-opacity="1" stop-color="rgb(0%, 42.861938%, 100%)" offset="0.480469"/><stop stop-opacity="1" stop-color="rgb(0%, 43.383789%, 100%)" offset="0.484375"/><stop stop-opacity="1" stop-color="rgb(0%, 43.904114%, 100%)" offset="0.488281"/><stop stop-opacity="1" stop-color="rgb(0%, 44.424438%, 100%)" offset="0.492187"/><stop stop-opacity="1" stop-color="rgb(0%, 44.944763%, 100%)" offset="0.496094"/><stop stop-opacity="1" stop-color="rgb(0%, 45.466614%, 100%)" offset="0.5"/><stop stop-opacity="1" stop-color="rgb(0%, 45.986938%, 100%)" offset="0.503906"/><stop stop-opacity="1" stop-color="rgb(0%, 46.507263%, 100%)" offset="0.507812"/><stop stop-opacity="1" stop-color="rgb(0%, 47.027588%, 100%)" offset="0.511719"/><stop stop-opacity="1" stop-color="rgb(0%, 47.549438%, 100%)" offset="0.515625"/><stop stop-opacity="1" stop-color="rgb(0%, 48.069763%, 100%)" offset="0.519531"/><stop stop-opacity="1" stop-color="rgb(0%, 48.591614%, 100%)" offset="0.523438"/><stop stop-opacity="1" stop-color="rgb(0%, 49.111938%, 100%)" offset="0.527344"/><stop stop-opacity="1" stop-color="rgb(0%, 49.632263%, 100%)" offset="0.53125"/><stop stop-opacity="1" stop-color="rgb(0%, 50.152588%, 100%)" offset="0.535156"/><stop stop-opacity="1" stop-color="rgb(0%, 50.674438%, 100%)" offset="0.539062"/><stop stop-opacity="1" stop-color="rgb(0%, 51.194763%, 100%)" offset="0.542969"/><stop stop-opacity="1" stop-color="rgb(0%, 51.715088%, 100%)" offset="0.546875"/><stop stop-opacity="1" stop-color="rgb(0%, 52.235413%, 100%)" offset="0.550781"/><stop stop-opacity="1" stop-color="rgb(0%, 52.757263%, 100%)" offset="0.554688"/><stop stop-opacity="1" stop-color="rgb(0%, 53.277588%, 100%)" offset="0.558594"/><stop stop-opacity="1" stop-color="rgb(0%, 53.797913%, 100%)" offset="0.5625"/><stop stop-opacity="1" stop-color="rgb(0%, 54.318237%, 100%)" offset="0.566406"/><stop stop-opacity="1" stop-color="rgb(0%, 54.840088%, 100%)" offset="0.570312"/><stop stop-opacity="1" stop-color="rgb(0%, 55.360413%, 100%)" offset="0.574219"/><stop stop-opacity="1" stop-color="rgb(0%, 55.880737%, 100%)" offset="0.578125"/><stop stop-opacity="1" stop-color="rgb(0%, 56.401062%, 100%)" offset="0.582031"/><stop stop-opacity="1" stop-color="rgb(0%, 56.922913%, 100%)" offset="0.585938"/><stop stop-opacity="1" stop-color="rgb(0%, 57.443237%, 100%)" offset="0.589844"/><stop stop-opacity="1" stop-color="rgb(0%, 57.965088%, 100%)" offset="0.59375"/><stop stop-opacity="1" stop-color="rgb(0%, 58.485413%, 100%)" offset="0.597656"/><stop stop-opacity="1" stop-color="rgb(0%, 59.005737%, 100%)" offset="0.601562"/><stop stop-opacity="1" stop-color="rgb(0%, 59.526062%, 100%)" offset="0.605469"/><stop stop-opacity="1" stop-color="rgb(0%, 60.047913%, 100%)" offset="0.609375"/><stop stop-opacity="1" stop-color="rgb(0%, 60.568237%, 100%)" offset="0.613281"/><stop stop-opacity="1" stop-color="rgb(0%, 61.088562%, 100%)" offset="0.617188"/><stop stop-opacity="1" stop-color="rgb(0%, 61.608887%, 100%)" offset="0.621094"/><stop stop-opacity="1" stop-color="rgb(0%, 62.130737%, 100%)" offset="0.625"/><stop stop-opacity="1" stop-color="rgb(0%, 62.651062%, 100%)" offset="0.628906"/><stop stop-opacity="1" stop-color="rgb(0%, 63.171387%, 100%)" offset="0.632812"/><stop stop-opacity="1" stop-color="rgb(0%, 63.691711%, 100%)" offset="0.636719"/><stop stop-opacity="1" stop-color="rgb(0%, 64.213562%, 100%)" offset="0.640625"/><stop stop-opacity="1" stop-color="rgb(0%, 64.733887%, 100%)" offset="0.644531"/><stop stop-opacity="1" stop-color="rgb(0%, 65.255737%, 100%)" offset="0.648438"/><stop stop-opacity="1" stop-color="rgb(0%, 65.776062%, 100%)" offset="0.652344"/><stop stop-opacity="1" stop-color="rgb(0%, 66.296387%, 100%)" offset="0.65625"/><stop stop-opacity="1" stop-color="rgb(0%, 66.816711%, 100%)" offset="0.660156"/><stop stop-opacity="1" stop-color="rgb(0%, 67.338562%, 100%)" offset="0.664062"/><stop stop-opacity="1" stop-color="rgb(0%, 67.858887%, 100%)" offset="0.667969"/><stop stop-opacity="1" stop-color="rgb(0%, 68.379211%, 100%)" offset="0.671875"/><stop stop-opacity="1" stop-color="rgb(0%, 68.899536%, 100%)" offset="0.675781"/><stop stop-opacity="1" stop-color="rgb(0%, 69.421387%, 100%)" offset="0.679688"/><stop stop-opacity="1" stop-color="rgb(0%, 69.941711%, 100%)" offset="0.683594"/><stop stop-opacity="1" stop-color="rgb(0%, 70.462036%, 100%)" offset="0.6875"/><stop stop-opacity="1" stop-color="rgb(0%, 70.982361%, 100%)" offset="0.691406"/><stop stop-opacity="1" stop-color="rgb(0%, 71.504211%, 100%)" offset="0.695312"/><stop stop-opacity="1" stop-color="rgb(0%, 72.024536%, 100%)" offset="0.699219"/><stop stop-opacity="1" stop-color="rgb(0%, 72.546387%, 100%)" offset="0.703125"/><stop stop-opacity="1" stop-color="rgb(0%, 73.066711%, 100%)" offset="0.707031"/><stop stop-opacity="1" stop-color="rgb(0%, 73.587036%, 100%)" offset="0.710938"/><stop stop-opacity="1" stop-color="rgb(0%, 74.107361%, 100%)" offset="0.714844"/><stop stop-opacity="1" stop-color="rgb(0%, 74.629211%, 100%)" offset="0.71875"/><stop stop-opacity="1" stop-color="rgb(0%, 75.149536%, 100%)" offset="0.722656"/><stop stop-opacity="1" stop-color="rgb(0%, 75.669861%, 100%)" offset="0.726562"/><stop stop-opacity="1" stop-color="rgb(0%, 75.874329%, 100%)" offset="0.730469"/><stop stop-opacity="1" stop-color="rgb(0%, 76.078796%, 100%)" offset="0.734375"/><stop stop-opacity="1" stop-color="rgb(0%, 76.078796%, 100%)" offset="0.75"/><stop stop-opacity="1" stop-color="rgb(0%, 76.078796%, 100%)" offset="1"/></linearGradient><clipPath id="a4188ad8a5"><rect x="0" width="87" y="0" height="83"/></clipPath><clipPath id="54646cf1ee"><rect x="0" width="194" y="0" height="13"/></clipPath></defs><g transform="matrix(1, 0, 0, 1, 37, 153)"><g clip-path="url(#a4188ad8a5)"><g clip-path="url(#ca10401591)"><g clip-path="url(#086db6d4f8)"><g clip-path="url(#ae33a570ea)"><g clip-path="url(#8240e1aaf8)"><path fill="url(#e4528caa68)" d="M 58.585938 28.160156 L 58.585938 46.523438 L 84.476562 46.523438 L 84.476562 28.160156 Z M 58.585938 28.160156 " fill-rule="nonzero"/></g></g></g></g><g clip-path="url(#f112b2c56b)"><g clip-path="url(#50eb029ee5)"><g clip-path="url(#ca22ef57d1)"><g clip-path="url(#d8f5a0d0e7)"><path fill="url(#76b145f557)" d="M 11.285156 28.210938 L 11.285156 76.914062 L 42.101562 76.914062 L 42.101562 28.210938 Z M 11.285156 28.210938 " fill-rule="nonzero"/></g></g></g></g><g clip-path="url(#856c8e1b63)"><g clip-path="url(#453f556c7f)"><g clip-path="url(#85843727f1)"><g clip-path="url(#6be863e74b)"><path fill="url(#cf5c23590d)" d="M 47.65625 89.085938 L 97.824219 38.921875 L 47.65625 -11.246094 L -2.511719 38.921875 Z M 47.65625 89.085938 " fill-rule="nonzero"/></g></g></g></g></g></g><g fill="#0f7df9" fill-opacity="1"><g transform="translate(121.673169, 202.295495)"><g><path d="M 1.90625 0 L 1.90625 -24.25 L 11.65625 -24.25 C 14.375 -24.25 16.75 -23.75 18.78125 -22.75 C 20.820312 -21.757812 22.410156 -20.359375 23.546875 -18.546875 C 24.691406 -16.734375 25.265625 -14.59375 25.265625 -12.125 C 25.265625 -9.675781 24.695312 -7.539062 23.5625 -5.71875 C 22.4375 -3.894531 20.851562 -2.484375 18.8125 -1.484375 C 16.78125 -0.492188 14.394531 0 11.65625 0 Z M 8.25 -4.890625 L 11.65625 -4.890625 C 13.050781 -4.890625 14.28125 -5.179688 15.34375 -5.765625 C 16.414062 -6.359375 17.242188 -7.195312 17.828125 -8.28125 C 18.421875 -9.375 18.71875 -10.65625 18.71875 -12.125 C 18.71875 -13.625 18.421875 -14.910156 17.828125 -15.984375 C 17.242188 -17.054688 16.414062 -17.882812 15.34375 -18.46875 C 14.28125 -19.0625 13.050781 -19.359375 11.65625 -19.359375 L 8.25 -19.359375 Z M 8.25 -4.890625 "/></g></g></g><g fill="#0f7df9" fill-opacity="1"><g transform="translate(148.026806, 202.295495)"><g><path d="M 6.390625 0.4375 C 4.734375 0.4375 3.375 0.0195312 2.3125 -0.8125 C 1.25 -1.65625 0.71875 -2.84375 0.71875 -4.375 C 0.71875 -6.050781 1.394531 -7.34375 2.75 -8.25 C 4.113281 -9.15625 6.21875 -9.828125 9.0625 -10.265625 L 12.40625 -10.765625 L 12.40625 -11.65625 C 12.40625 -12.394531 12.171875 -13.007812 11.703125 -13.5 C 11.234375 -13.988281 10.601562 -14.234375 9.8125 -14.234375 C 9.039062 -14.234375 8.390625 -13.984375 7.859375 -13.484375 C 7.328125 -12.984375 7.0625 -12.304688 7.0625 -11.453125 L 1.5 -11.453125 C 1.5 -12.742188 1.84375 -13.863281 2.53125 -14.8125 C 3.21875 -15.757812 4.195312 -16.5 5.46875 -17.03125 C 6.738281 -17.5625 8.210938 -17.828125 9.890625 -17.828125 C 11.566406 -17.828125 13.023438 -17.5625 14.265625 -17.03125 C 15.515625 -16.5 16.488281 -15.75 17.1875 -14.78125 C 17.882812 -13.820312 18.234375 -12.695312 18.234375 -11.40625 L 18.234375 0 L 12.40625 0 L 12.40625 -2.3125 L 12.09375 -2.3125 C 11.59375 -1.40625 10.816406 -0.71875 9.765625 -0.25 C 8.710938 0.207031 7.585938 0.4375 6.390625 0.4375 Z M 8.765625 -3.015625 C 9.847656 -3.015625 10.722656 -3.351562 11.390625 -4.03125 C 12.066406 -4.71875 12.40625 -5.570312 12.40625 -6.59375 L 12.40625 -7.78125 L 9.375 -7.265625 C 8.289062 -7.085938 7.507812 -6.804688 7.03125 -6.421875 C 6.550781 -6.035156 6.3125 -5.546875 6.3125 -4.953125 C 6.3125 -4.390625 6.523438 -3.925781 6.953125 -3.5625 C 7.390625 -3.195312 7.992188 -3.015625 8.765625 -3.015625 Z M 8.765625 -3.015625 "/></g></g></g><g fill="#0f7df9" fill-opacity="1"><g transform="translate(167.690157, 202.295495)"><g><path d="M 1.625 0 L 1.625 -17.453125 L 7.4375 -17.453125 L 7.4375 -14.53125 L 7.78125 -14.53125 C 8.28125 -15.550781 8.988281 -16.367188 9.90625 -16.984375 C 10.820312 -17.597656 11.859375 -17.90625 13.015625 -17.90625 C 14.234375 -17.90625 15.328125 -17.566406 16.296875 -16.890625 C 17.273438 -16.222656 17.945312 -15.347656 18.3125 -14.265625 L 18.609375 -14.265625 C 18.992188 -15.398438 19.660156 -16.289062 20.609375 -16.9375 C 21.566406 -17.582031 22.703125 -17.90625 24.015625 -17.90625 C 25.234375 -17.90625 26.3125 -17.625 27.25 -17.0625 C 28.195312 -16.507812 28.929688 -15.726562 29.453125 -14.71875 C 29.972656 -13.71875 30.234375 -12.546875 30.234375 -11.203125 L 30.234375 0 L 24.390625 0 L 24.390625 -9.8125 C 24.390625 -10.71875 24.140625 -11.476562 23.640625 -12.09375 C 23.140625 -12.707031 22.445312 -13.023438 21.5625 -13.046875 C 20.707031 -13.046875 20.019531 -12.75 19.5 -12.15625 C 18.976562 -11.570312 18.71875 -10.789062 18.71875 -9.8125 L 18.71875 0 L 12.90625 0 L 12.90625 -9.8125 C 12.90625 -10.789062 12.65625 -11.570312 12.15625 -12.15625 C 11.65625 -12.75 11 -13.046875 10.1875 -13.046875 C 9.351562 -13.046875 8.691406 -12.75 8.203125 -12.15625 C 7.710938 -11.570312 7.46875 -10.789062 7.46875 -9.8125 L 7.46875 0 Z M 1.625 0 "/></g></g></g><g fill="#0f7df9" fill-opacity="1"><g transform="translate(199.341698, 202.295495)"><g><path d="M 4.625 -19.53125 C 3.664062 -19.53125 2.875 -19.828125 2.25 -20.421875 C 1.632812 -21.023438 1.328125 -21.789062 1.328125 -22.71875 C 1.328125 -23.65625 1.632812 -24.421875 2.25 -25.015625 C 2.875 -25.617188 3.664062 -25.921875 4.625 -25.921875 C 5.59375 -25.921875 6.390625 -25.617188 7.015625 -25.015625 C 7.640625 -24.421875 7.953125 -23.65625 7.953125 -22.71875 C 7.953125 -21.789062 7.640625 -21.023438 7.015625 -20.421875 C 6.390625 -19.828125 5.59375 -19.53125 4.625 -19.53125 Z M 1.703125 0 L 1.703125 -17.453125 L 7.546875 -17.453125 L 7.546875 0 Z M 1.703125 0 "/></g></g></g><g fill="#0f7df9" fill-opacity="1"><g transform="translate(208.579059, 202.295495)"><g><path d="M 8.53125 0.4375 C 6.988281 0.4375 5.632812 0.0664062 4.46875 -0.671875 C 3.300781 -1.421875 2.394531 -2.484375 1.75 -3.859375 C 1.101562 -5.242188 0.78125 -6.867188 0.78125 -8.734375 C 0.78125 -10.585938 1.101562 -12.195312 1.75 -13.5625 C 2.394531 -14.9375 3.300781 -16.003906 4.46875 -16.765625 C 5.632812 -17.523438 6.988281 -17.90625 8.53125 -17.90625 C 9.789062 -17.90625 10.875 -17.644531 11.78125 -17.125 C 12.6875 -16.601562 13.425781 -15.878906 14 -14.953125 L 14.296875 -14.953125 L 14.296875 -25.265625 L 20.140625 -25.265625 L 20.140625 0 L 14.296875 0 L 14.296875 -2.515625 L 14 -2.515625 C 13.425781 -1.585938 12.6875 -0.863281 11.78125 -0.34375 C 10.875 0.175781 9.789062 0.4375 8.53125 0.4375 Z M 10.5625 -4.421875 C 11.71875 -4.421875 12.664062 -4.828125 13.40625 -5.640625 C 14.15625 -6.453125 14.53125 -7.484375 14.53125 -8.734375 C 14.53125 -9.972656 14.15625 -11 13.40625 -11.8125 C 12.664062 -12.632812 11.71875 -13.046875 10.5625 -13.046875 C 9.425781 -13.046875 8.484375 -12.632812 7.734375 -11.8125 C 6.992188 -11 6.625 -9.972656 6.625 -8.734375 C 6.625 -7.484375 6.992188 -6.453125 7.734375 -5.640625 C 8.484375 -4.828125 9.425781 -4.421875 10.5625 -4.421875 Z M 10.5625 -4.421875 "/></g></g></g><g fill="#0f7df9" fill-opacity="1"><g transform="translate(230.347986, 202.295495)"><g><path d="M 6.390625 0.4375 C 4.734375 0.4375 3.375 0.0195312 2.3125 -0.8125 C 1.25 -1.65625 0.71875 -2.84375 0.71875 -4.375 C 0.71875 -6.050781 1.394531 -7.34375 2.75 -8.25 C 4.113281 -9.15625 6.21875 -9.828125 9.0625 -10.265625 L 12.40625 -10.765625 L 12.40625 -11.65625 C 12.40625 -12.394531 12.171875 -13.007812 11.703125 -13.5 C 11.234375 -13.988281 10.601562 -14.234375 9.8125 -14.234375 C 9.039062 -14.234375 8.390625 -13.984375 7.859375 -13.484375 C 7.328125 -12.984375 7.0625 -12.304688 7.0625 -11.453125 L 1.5 -11.453125 C 1.5 -12.742188 1.84375 -13.863281 2.53125 -14.8125 C 3.21875 -15.757812 4.195312 -16.5 5.46875 -17.03125 C 6.738281 -17.5625 8.210938 -17.828125 9.890625 -17.828125 C 11.566406 -17.828125 13.023438 -17.5625 14.265625 -17.03125 C 15.515625 -16.5 16.488281 -15.75 17.1875 -14.78125 C 17.882812 -13.820312 18.234375 -12.695312 18.234375 -11.40625 L 18.234375 0 L 12.40625 0 L 12.40625 -2.3125 L 12.09375 -2.3125 C 11.59375 -1.40625 10.816406 -0.71875 9.765625 -0.25 C 8.710938 0.207031 7.585938 0.4375 6.390625 0.4375 Z M 8.765625 -3.015625 C 9.847656 -3.015625 10.722656 -3.351562 11.390625 -4.03125 C 12.066406 -4.71875 12.40625 -5.570312 12.40625 -6.59375 L 12.40625 -7.78125 L 9.375 -7.265625 C 8.289062 -7.085938 7.507812 -6.804688 7.03125 -6.421875 C 6.550781 -6.035156 6.3125 -5.546875 6.3125 -4.953125 C 6.3125 -4.390625 6.523438 -3.925781 6.953125 -3.5625 C 7.390625 -3.195312 7.992188 -3.015625 8.765625 -3.015625 Z M 8.765625 -3.015625 "/></g></g></g><g fill="#0f7df9" fill-opacity="1"><g transform="translate(250.011338, 202.295495)"><g><path d="M 12.09375 0.515625 C 9.9375 0.515625 8.035156 0.148438 6.390625 -0.578125 C 4.753906 -1.304688 3.484375 -2.300781 2.578125 -3.5625 C 1.671875 -4.832031 1.21875 -6.296875 1.21875 -7.953125 L 7.375 -7.953125 C 7.375 -6.816406 7.8125 -5.894531 8.6875 -5.1875 C 9.570312 -4.488281 10.796875 -4.140625 12.359375 -4.140625 C 13.671875 -4.140625 14.722656 -4.390625 15.515625 -4.890625 C 16.316406 -5.390625 16.71875 -6.066406 16.71875 -6.921875 C 16.71875 -7.609375 16.488281 -8.125 16.03125 -8.46875 C 15.582031 -8.820312 14.984375 -9.085938 14.234375 -9.265625 C 13.484375 -9.453125 12.65625 -9.601562 11.75 -9.71875 C 10.914062 -9.832031 10.023438 -9.960938 9.078125 -10.109375 C 8.140625 -10.253906 7.21875 -10.460938 6.3125 -10.734375 C 5.40625 -11.003906 4.578125 -11.382812 3.828125 -11.875 C 3.085938 -12.363281 2.492188 -13.007812 2.046875 -13.8125 C 1.609375 -14.613281 1.390625 -15.625 1.390625 -16.84375 C 1.390625 -18.425781 1.828125 -19.8125 2.703125 -21 C 3.578125 -22.195312 4.796875 -23.125 6.359375 -23.78125 C 7.921875 -24.4375 9.742188 -24.765625 11.828125 -24.765625 C 13.953125 -24.765625 15.804688 -24.40625 17.390625 -23.6875 C 18.972656 -22.976562 20.210938 -21.992188 21.109375 -20.734375 C 22.003906 -19.484375 22.453125 -18.03125 22.453125 -16.375 L 16.546875 -16.375 C 16.546875 -17.550781 16.128906 -18.46875 15.296875 -19.125 C 14.472656 -19.78125 13.394531 -20.109375 12.0625 -20.109375 C 10.8125 -20.109375 9.8125 -19.847656 9.0625 -19.328125 C 8.320312 -18.804688 7.953125 -18.148438 7.953125 -17.359375 C 7.953125 -16.660156 8.210938 -16.128906 8.734375 -15.765625 C 9.253906 -15.398438 9.9375 -15.125 10.78125 -14.9375 C 11.632812 -14.757812 12.554688 -14.601562 13.546875 -14.46875 C 14.585938 -14.3125 15.671875 -14.113281 16.796875 -13.875 C 17.921875 -13.632812 18.972656 -13.273438 19.953125 -12.796875 C 20.941406 -12.328125 21.738281 -11.648438 22.34375 -10.765625 C 22.957031 -9.878906 23.265625 -8.722656 23.265625 -7.296875 C 23.265625 -5.710938 22.800781 -4.335938 21.875 -3.171875 C 20.945312 -2.003906 19.644531 -1.097656 17.96875 -0.453125 C 16.289062 0.191406 14.332031 0.515625 12.09375 0.515625 Z M 12.09375 0.515625 "/></g></g></g><g fill="#0f7df9" fill-opacity="1"><g transform="translate(274.497126, 202.295495)"><g><path d="M 10.5625 0.4375 C 8.59375 0.4375 6.867188 0.0703125 5.390625 -0.65625 C 3.921875 -1.394531 2.78125 -2.453125 1.96875 -3.828125 C 1.15625 -5.210938 0.75 -6.847656 0.75 -8.734375 C 0.75 -10.628906 1.148438 -12.257812 1.953125 -13.625 C 2.753906 -15 3.890625 -16.054688 5.359375 -16.796875 C 6.835938 -17.535156 8.570312 -17.90625 10.5625 -17.90625 C 12.53125 -17.90625 14.25 -17.535156 15.71875 -16.796875 C 17.195312 -16.054688 18.335938 -15 19.140625 -13.625 C 19.941406 -12.257812 20.34375 -10.628906 20.34375 -8.734375 C 20.34375 -6.828125 19.941406 -5.1875 19.140625 -3.8125 C 18.335938 -2.445312 17.203125 -1.394531 15.734375 -0.65625 C 14.273438 0.0703125 12.550781 0.4375 10.5625 0.4375 Z M 10.5625 -4.421875 C 11.71875 -4.421875 12.660156 -4.820312 13.390625 -5.625 C 14.128906 -6.425781 14.5 -7.460938 14.5 -8.734375 C 14.5 -9.992188 14.128906 -11.023438 13.390625 -11.828125 C 12.660156 -12.640625 11.71875 -13.046875 10.5625 -13.046875 C 9.382812 -13.046875 8.425781 -12.640625 7.6875 -11.828125 C 6.957031 -11.023438 6.59375 -9.992188 6.59375 -8.734375 C 6.59375 -7.460938 6.957031 -6.425781 7.6875 -5.625 C 8.425781 -4.820312 9.382812 -4.421875 10.5625 -4.421875 Z M 10.5625 -4.421875 "/></g></g></g><g fill="#0f7df9" fill-opacity="1"><g transform="translate(295.586835, 202.295495)"><g><path d="M 3.015625 0 L 3.015625 -13.3125 L 0.671875 -13.3125 L 0.671875 -17.453125 L 3.015625 -17.453125 L 3.015625 -18.984375 C 3.015625 -21.046875 3.5625 -22.679688 4.65625 -23.890625 C 5.757812 -25.109375 7.195312 -25.71875 8.96875 -25.71875 C 9.582031 -25.71875 10.226562 -25.664062 10.90625 -25.5625 C 11.582031 -25.457031 12.191406 -25.316406 12.734375 -25.140625 L 12.734375 -20.625 C 12.148438 -20.78125 11.5625 -20.859375 10.96875 -20.859375 C 10.332031 -20.859375 9.820312 -20.691406 9.4375 -20.359375 C 9.050781 -20.035156 8.859375 -19.578125 8.859375 -18.984375 L 8.859375 -17.453125 L 12.640625 -17.453125 L 12.640625 -13.3125 L 8.859375 -13.3125 L 8.859375 0 Z M 3.015625 0 "/></g></g></g><g fill="#0f7df9" fill-opacity="1"><g transform="translate(308.899495, 202.295495)"><g><path d="M 8.734375 0.375 C 6.921875 0.375 5.457031 -0.222656 4.34375 -1.421875 C 3.238281 -2.628906 2.6875 -4.191406 2.6875 -6.109375 L 2.6875 -13.3125 L 0.375 -13.3125 L 0.375 -17.453125 L 2.921875 -17.453125 L 3.90625 -22.828125 L 8.53125 -22.828125 L 8.53125 -17.453125 L 12.328125 -17.453125 L 12.328125 -13.3125 L 8.53125 -13.3125 L 8.53125 -6.390625 C 8.53125 -5.679688 8.726562 -5.113281 9.125 -4.6875 C 9.519531 -4.257812 10.035156 -4.046875 10.671875 -4.046875 C 10.921875 -4.046875 11.207031 -4.0625 11.53125 -4.09375 C 11.863281 -4.125 12.164062 -4.175781 12.4375 -4.25 L 12.4375 -0.234375 C 11.894531 -0.0351562 11.273438 0.113281 10.578125 0.21875 C 9.890625 0.320312 9.273438 0.375 8.734375 0.375 Z M 8.734375 0.375 "/></g></g></g><g transform="matrix(1, 0, 0, 1, 126, 212)"><g clip-path="url(#54646cf1ee)"><g fill="#0030ff" fill-opacity="1"><g transform="translate(1.337955, 9.467101)"><g><path d="M 0.671875 0 L 0.671875 -6.609375 L 3.734375 -6.609375 C 4.242188 -6.609375 4.6875 -6.523438 5.0625 -6.359375 C 5.4375 -6.191406 5.722656 -5.953125 5.921875 -5.640625 C 6.128906 -5.335938 6.234375 -4.972656 6.234375 -4.546875 C 6.234375 -4.191406 6.148438 -3.875 5.984375 -3.59375 C 5.828125 -3.3125 5.601562 -3.085938 5.3125 -2.921875 C 5.019531 -2.753906 4.679688 -2.65625 4.296875 -2.625 L 4.09375 -2.609375 L 6.3125 0 L 4.984375 0 L 2.9375 -2.53125 L 1.84375 -2.53125 L 1.84375 0 Z M 1.84375 -3.328125 L 3.546875 -3.328125 C 3.992188 -3.328125 4.359375 -3.4375 4.640625 -3.65625 C 4.921875 -3.875 5.0625 -4.171875 5.0625 -4.546875 C 5.0625 -4.921875 4.921875 -5.210938 4.640625 -5.421875 C 4.367188 -5.628906 4.003906 -5.734375 3.546875 -5.734375 L 1.84375 -5.734375 Z M 1.84375 -3.328125 "/></g></g></g><g fill="#0030ff" fill-opacity="1"><g transform="translate(9.987573, 9.467101)"><g><path d="M 0.671875 0 L 0.671875 -6.609375 L 5.46875 -6.609375 L 5.46875 -5.671875 L 1.8125 -5.671875 L 1.8125 -3.796875 L 5.203125 -3.796875 L 5.203125 -2.984375 L 1.8125 -2.984375 L 1.8125 -0.953125 L 5.5625 -0.953125 L 5.5625 0 Z M 0.671875 0 "/></g></g></g><g fill="#0030ff" fill-opacity="1"><g transform="translate(17.90789, 9.467101)"><g><path d="M 0.65625 0 L 0.65625 -6.609375 L 1.96875 -6.609375 L 5.03125 -1.515625 L 5.109375 -1.515625 L 5.109375 -6.609375 L 6.21875 -6.609375 L 6.21875 0 L 4.90625 0 L 1.84375 -5.09375 L 1.78125 -5.09375 L 1.78125 0 Z M 0.65625 0 "/></g></g></g><g fill="#0030ff" fill-opacity="1"><g transform="translate(26.781907, 9.467101)"><g><path d="M 0.671875 0 L 0.671875 -6.609375 L 3.046875 -6.609375 C 3.773438 -6.609375 4.410156 -6.472656 4.953125 -6.203125 C 5.503906 -5.941406 5.929688 -5.5625 6.234375 -5.0625 C 6.535156 -4.570312 6.6875 -3.988281 6.6875 -3.3125 C 6.6875 -2.632812 6.535156 -2.046875 6.234375 -1.546875 C 5.929688 -1.046875 5.503906 -0.660156 4.953125 -0.390625 C 4.410156 -0.128906 3.773438 0 3.046875 0 Z M 1.8125 -0.921875 L 3.046875 -0.921875 C 3.535156 -0.921875 3.960938 -1.015625 4.328125 -1.203125 C 4.703125 -1.390625 4.992188 -1.660156 5.203125 -2.015625 C 5.410156 -2.378906 5.515625 -2.8125 5.515625 -3.3125 C 5.515625 -3.8125 5.410156 -4.238281 5.203125 -4.59375 C 4.992188 -4.945312 4.703125 -5.21875 4.328125 -5.40625 C 3.960938 -5.601562 3.535156 -5.703125 3.046875 -5.703125 L 1.8125 -5.703125 Z M 1.8125 -0.921875 "/></g></g></g><g fill="#0030ff" fill-opacity="1"><g transform="translate(35.870979, 9.467101)"><g><path d="M 3.296875 0.171875 C 2.734375 0.171875 2.238281 0.078125 1.8125 -0.109375 C 1.382812 -0.304688 1.050781 -0.578125 0.8125 -0.921875 C 0.582031 -1.273438 0.46875 -1.679688 0.46875 -2.140625 L 1.578125 -2.15625 C 1.578125 -1.695312 1.734375 -1.335938 2.046875 -1.078125 C 2.359375 -0.828125 2.789062 -0.703125 3.34375 -0.703125 C 3.832031 -0.703125 4.222656 -0.800781 4.515625 -1 C 4.804688 -1.195312 4.953125 -1.460938 4.953125 -1.796875 C 4.953125 -2.066406 4.867188 -2.269531 4.703125 -2.40625 C 4.535156 -2.539062 4.316406 -2.640625 4.046875 -2.703125 C 3.785156 -2.765625 3.503906 -2.820312 3.203125 -2.875 C 2.898438 -2.914062 2.59375 -2.960938 2.28125 -3.015625 C 1.976562 -3.078125 1.691406 -3.171875 1.421875 -3.296875 C 1.160156 -3.421875 0.945312 -3.597656 0.78125 -3.828125 C 0.625 -4.054688 0.546875 -4.363281 0.546875 -4.75 C 0.546875 -5.15625 0.65625 -5.507812 0.875 -5.8125 C 1.09375 -6.125 1.394531 -6.363281 1.78125 -6.53125 C 2.175781 -6.707031 2.648438 -6.796875 3.203125 -6.796875 C 3.753906 -6.796875 4.234375 -6.703125 4.640625 -6.515625 C 5.054688 -6.328125 5.375 -6.066406 5.59375 -5.734375 C 5.820312 -5.398438 5.9375 -5.007812 5.9375 -4.5625 L 4.859375 -4.5625 C 4.859375 -4.976562 4.710938 -5.304688 4.421875 -5.546875 C 4.128906 -5.796875 3.738281 -5.921875 3.25 -5.921875 C 2.769531 -5.921875 2.394531 -5.816406 2.125 -5.609375 C 1.863281 -5.410156 1.734375 -5.148438 1.734375 -4.828125 C 1.734375 -4.554688 1.816406 -4.351562 1.984375 -4.21875 C 2.148438 -4.082031 2.367188 -3.984375 2.640625 -3.921875 C 2.910156 -3.859375 3.203125 -3.800781 3.515625 -3.75 C 3.804688 -3.707031 4.101562 -3.65625 4.40625 -3.59375 C 4.71875 -3.53125 5.003906 -3.429688 5.265625 -3.296875 C 5.523438 -3.171875 5.734375 -2.992188 5.890625 -2.765625 C 6.046875 -2.535156 6.125 -2.234375 6.125 -1.859375 C 6.125 -1.453125 6.003906 -1.09375 5.765625 -0.78125 C 5.535156 -0.476562 5.207031 -0.242188 4.78125 -0.078125 C 4.363281 0.0859375 3.867188 0.171875 3.296875 0.171875 Z M 3.296875 0.171875 "/></g></g></g><g fill="#0030ff" fill-opacity="1"><g transform="translate(44.455149, 9.467101)"><g><path d="M 0.3125 0 L 0.3125 -0.640625 L 3.921875 -5.59375 L 3.921875 -5.671875 L 0.359375 -5.671875 L 0.359375 -6.609375 L 5.5 -6.609375 L 5.5 -5.984375 L 1.921875 -1.03125 L 1.921875 -0.953125 L 5.59375 -0.953125 L 5.59375 0 Z M 0.3125 0 "/></g></g></g><g fill="#0030ff" fill-opacity="1"><g transform="translate(52.338064, 9.467101)"><g><path d="M 0.671875 0 L 0.671875 -6.609375 L 5.46875 -6.609375 L 5.46875 -5.671875 L 1.8125 -5.671875 L 1.8125 -3.796875 L 5.203125 -3.796875 L 5.203125 -2.984375 L 1.8125 -2.984375 L 1.8125 -0.953125 L 5.5625 -0.953125 L 5.5625 0 Z M 0.671875 0 "/></g></g></g><g fill="#0030ff" fill-opacity="1"><g transform="translate(60.258381, 9.467101)"><g><path d="M 0.671875 0 L 0.671875 -6.609375 L 3.734375 -6.609375 C 4.242188 -6.609375 4.6875 -6.523438 5.0625 -6.359375 C 5.4375 -6.191406 5.722656 -5.953125 5.921875 -5.640625 C 6.128906 -5.335938 6.234375 -4.972656 6.234375 -4.546875 C 6.234375 -4.191406 6.148438 -3.875 5.984375 -3.59375 C 5.828125 -3.3125 5.601562 -3.085938 5.3125 -2.921875 C 5.019531 -2.753906 4.679688 -2.65625 4.296875 -2.625 L 4.09375 -2.609375 L 6.3125 0 L 4.984375 0 L 2.9375 -2.53125 L 1.84375 -2.53125 L 1.84375 0 Z M 1.84375 -3.328125 L 3.546875 -3.328125 C 3.992188 -3.328125 4.359375 -3.4375 4.640625 -3.65625 C 4.921875 -3.875 5.0625 -4.171875 5.0625 -4.546875 C 5.0625 -4.921875 4.921875 -5.210938 4.640625 -5.421875 C 4.367188 -5.628906 4.003906 -5.734375 3.546875 -5.734375 L 1.84375 -5.734375 Z M 1.84375 -3.328125 "/></g></g></g><g fill="#0030ff" fill-opacity="1"><g transform="translate(68.907999, 9.467101)"><g><path d="M 0.671875 0 L 0.671875 -6.609375 L 5.46875 -6.609375 L 5.46875 -5.671875 L 1.8125 -5.671875 L 1.8125 -3.796875 L 5.203125 -3.796875 L 5.203125 -2.984375 L 1.8125 -2.984375 L 1.8125 -0.953125 L 5.5625 -0.953125 L 5.5625 0 Z M 0.671875 0 "/></g></g></g><g fill="#0030ff" fill-opacity="1"><g transform="translate(76.828316, 9.467101)"><g><path d="M 0.65625 0 L 0.65625 -6.609375 L 1.84375 -6.609375 L 1.84375 -3.859375 L 1.921875 -3.859375 L 4.53125 -6.609375 L 5.96875 -6.609375 L 2.96875 -3.484375 L 6.015625 0 L 4.59375 0 L 1.921875 -3.078125 L 1.84375 -3.078125 L 1.84375 0 Z M 0.65625 0 "/></g></g></g><g fill="#0030ff" fill-opacity="1"><g transform="translate(85.001078, 9.467101)"><g><path d="M 0.671875 0 L 0.671875 -6.609375 L 5.46875 -6.609375 L 5.46875 -5.671875 L 1.8125 -5.671875 L 1.8125 -3.796875 L 5.203125 -3.796875 L 5.203125 -2.984375 L 1.8125 -2.984375 L 1.8125 -0.953125 L 5.5625 -0.953125 L 5.5625 0 Z M 0.671875 0 "/></g></g></g><g fill="#0030ff" fill-opacity="1"><g transform="translate(92.921395, 9.467101)"><g><path d="M 2.359375 0 L 2.359375 -5.640625 L 0.15625 -5.640625 L 0.15625 -6.609375 L 5.75 -6.609375 L 5.75 -5.640625 L 3.53125 -5.640625 L 3.53125 0 Z M 2.359375 0 "/></g></g></g><g fill="#0030ff" fill-opacity="1"><g transform="translate(100.794954, 9.467101)"><g/></g></g><g fill="#0030ff" fill-opacity="1"><g transform="translate(105.07808, 9.467101)"><g><path d="M 0.671875 0 L 0.671875 -6.609375 L 5.234375 -6.609375 L 5.234375 -5.59375 L 1.84375 -5.59375 L 1.84375 -3.71875 L 4.78125 -3.71875 L 4.78125 -2.8125 L 1.84375 -2.8125 L 1.84375 0 Z M 0.671875 0 "/></g></g></g><g fill="#0030ff" fill-opacity="1"><g transform="translate(112.596345, 9.467101)"><g><path d="M 0.671875 0 L 0.671875 -6.609375 L 5.46875 -6.609375 L 5.46875 -5.671875 L 1.8125 -5.671875 L 1.8125 -3.796875 L 5.203125 -3.796875 L 5.203125 -2.984375 L 1.8125 -2.984375 L 1.8125 -0.953125 L 5.5625 -0.953125 L 5.5625 0 Z M 0.671875 0 "/></g></g></g><g fill="#0030ff" fill-opacity="1"><g transform="translate(120.516661, 9.467101)"><g><path d="M 1.515625 0.15625 C 1.316406 0.15625 1.101562 0.132812 0.875 0.09375 C 0.644531 0.0625 0.441406 0.0195312 0.265625 -0.03125 L 0.265625 -0.9375 C 0.421875 -0.894531 0.585938 -0.859375 0.765625 -0.828125 C 0.941406 -0.804688 1.09375 -0.796875 1.21875 -0.796875 C 1.582031 -0.796875 1.878906 -0.921875 2.109375 -1.171875 C 2.335938 -1.421875 2.453125 -1.78125 2.453125 -2.25 L 2.453125 -6.609375 L 3.625 -6.609375 L 3.625 -2.109375 C 3.625 -1.628906 3.53125 -1.222656 3.34375 -0.890625 C 3.164062 -0.554688 2.914062 -0.296875 2.59375 -0.109375 C 2.28125 0.0664062 1.921875 0.15625 1.515625 0.15625 Z M 1.515625 0.15625 "/></g></g></g><g fill="#0030ff" fill-opacity="1"><g transform="translate(126.782012, 9.467101)"><g><path d="M 0.671875 0 L 0.671875 -6.609375 L 1.84375 -6.609375 L 1.84375 -1.015625 L 5.140625 -1.015625 L 5.140625 0 Z M 0.671875 0 "/></g></g></g><g fill="#0030ff" fill-opacity="1"><g transform="translate(134.160015, 9.467101)"><g><path d="M 0.671875 0 L 0.671875 -6.609375 L 5.46875 -6.609375 L 5.46875 -5.671875 L 1.8125 -5.671875 L 1.8125 -3.796875 L 5.203125 -3.796875 L 5.203125 -2.984375 L 1.8125 -2.984375 L 1.8125 -0.953125 L 5.5625 -0.953125 L 5.5625 0 Z M 0.671875 0 "/></g></g></g><g fill="#0030ff" fill-opacity="1"><g transform="translate(142.080332, 9.467101)"><g><path d="M 3.296875 0.171875 C 2.734375 0.171875 2.238281 0.078125 1.8125 -0.109375 C 1.382812 -0.304688 1.050781 -0.578125 0.8125 -0.921875 C 0.582031 -1.273438 0.46875 -1.679688 0.46875 -2.140625 L 1.578125 -2.15625 C 1.578125 -1.695312 1.734375 -1.335938 2.046875 -1.078125 C 2.359375 -0.828125 2.789062 -0.703125 3.34375 -0.703125 C 3.832031 -0.703125 4.222656 -0.800781 4.515625 -1 C 4.804688 -1.195312 4.953125 -1.460938 4.953125 -1.796875 C 4.953125 -2.066406 4.867188 -2.269531 4.703125 -2.40625 C 4.535156 -2.539062 4.316406 -2.640625 4.046875 -2.703125 C 3.785156 -2.765625 3.503906 -2.820312 3.203125 -2.875 C 2.898438 -2.914062 2.59375 -2.960938 2.28125 -3.015625 C 1.976562 -3.078125 1.691406 -3.171875 1.421875 -3.296875 C 1.160156 -3.421875 0.945312 -3.597656 0.78125 -3.828125 C 0.625 -4.054688 0.546875 -4.363281 0.546875 -4.75 C 0.546875 -5.15625 0.65625 -5.507812 0.875 -5.8125 C 1.09375 -6.125 1.394531 -6.363281 1.78125 -6.53125 C 2.175781 -6.707031 2.648438 -6.796875 3.203125 -6.796875 C 3.753906 -6.796875 4.234375 -6.703125 4.640625 -6.515625 C 5.054688 -6.328125 5.375 -6.066406 5.59375 -5.734375 C 5.820312 -5.398438 5.9375 -5.007812 5.9375 -4.5625 L 4.859375 -4.5625 C 4.859375 -4.976562 4.710938 -5.304688 4.421875 -5.546875 C 4.128906 -5.796875 3.738281 -5.921875 3.25 -5.921875 C 2.769531 -5.921875 2.394531 -5.816406 2.125 -5.609375 C 1.863281 -5.410156 1.734375 -5.148438 1.734375 -4.828125 C 1.734375 -4.554688 1.816406 -4.351562 1.984375 -4.21875 C 2.148438 -4.082031 2.367188 -3.984375 2.640625 -3.921875 C 2.910156 -3.859375 3.203125 -3.800781 3.515625 -3.75 C 3.804688 -3.707031 4.101562 -3.65625 4.40625 -3.59375 C 4.71875 -3.53125 5.003906 -3.429688 5.265625 -3.296875 C 5.523438 -3.171875 5.734375 -2.992188 5.890625 -2.765625 C 6.046875 -2.535156 6.125 -2.234375 6.125 -1.859375 C 6.125 -1.453125 6.003906 -1.09375 5.765625 -0.78125 C 5.535156 -0.476562 5.207031 -0.242188 4.78125 -0.078125 C 4.363281 0.0859375 3.867188 0.171875 3.296875 0.171875 Z M 3.296875 0.171875 "/></g></g></g><g fill="#0030ff" fill-opacity="1"><g transform="translate(150.664502, 9.467101)"><g><path d="M 0.3125 0 L 0.3125 -0.640625 L 3.921875 -5.59375 L 3.921875 -5.671875 L 0.359375 -5.671875 L 0.359375 -6.609375 L 5.5 -6.609375 L 5.5 -5.984375 L 1.921875 -1.03125 L 1.921875 -0.953125 L 5.59375 -0.953125 L 5.59375 0 Z M 0.3125 0 "/></g></g></g><g fill="#0030ff" fill-opacity="1"><g transform="translate(158.547418, 9.467101)"><g><path d="M 2.359375 0 L 2.359375 -5.640625 L 0.15625 -5.640625 L 0.15625 -6.609375 L 5.75 -6.609375 L 5.75 -5.640625 L 3.53125 -5.640625 L 3.53125 0 Z M 2.359375 0 "/></g></g></g><g fill="#0030ff" fill-opacity="1"><g transform="translate(166.420977, 9.467101)"><g><path d="M 2.375 -7.234375 C 2.226562 -7.234375 2.097656 -7.28125 1.984375 -7.375 C 1.878906 -7.476562 1.828125 -7.609375 1.828125 -7.765625 C 1.828125 -7.921875 1.878906 -8.046875 1.984375 -8.140625 C 2.097656 -8.242188 2.226562 -8.296875 2.375 -8.296875 C 2.53125 -8.296875 2.660156 -8.242188 2.765625 -8.140625 C 2.867188 -8.046875 2.921875 -7.921875 2.921875 -7.765625 C 2.921875 -7.609375 2.867188 -7.476562 2.765625 -7.375 C 2.660156 -7.28125 2.53125 -7.234375 2.375 -7.234375 Z M 4.5 -7.234375 C 4.34375 -7.234375 4.210938 -7.28125 4.109375 -7.375 C 4.003906 -7.476562 3.953125 -7.609375 3.953125 -7.765625 C 3.953125 -7.921875 4.003906 -8.046875 4.109375 -8.140625 C 4.210938 -8.242188 4.34375 -8.296875 4.5 -8.296875 C 4.65625 -8.296875 4.785156 -8.242188 4.890625 -8.140625 C 4.992188 -8.046875 5.046875 -7.921875 5.046875 -7.765625 C 5.046875 -7.609375 4.992188 -7.476562 4.890625 -7.375 C 4.785156 -7.28125 4.65625 -7.234375 4.5 -7.234375 Z M 3.4375 0.171875 C 2.875 0.171875 2.378906 0.0546875 1.953125 -0.171875 C 1.523438 -0.410156 1.191406 -0.742188 0.953125 -1.171875 C 0.722656 -1.609375 0.609375 -2.113281 0.609375 -2.6875 L 0.609375 -6.609375 L 1.78125 -6.609375 L 1.78125 -2.734375 C 1.78125 -2.140625 1.929688 -1.664062 2.234375 -1.3125 C 2.535156 -0.96875 2.9375 -0.796875 3.4375 -0.796875 C 3.9375 -0.796875 4.332031 -0.96875 4.625 -1.3125 C 4.925781 -1.664062 5.078125 -2.140625 5.078125 -2.734375 L 5.078125 -6.609375 L 6.265625 -6.609375 L 6.265625 -2.6875 C 6.265625 -2.113281 6.144531 -1.609375 5.90625 -1.171875 C 5.664062 -0.742188 5.332031 -0.410156 4.90625 -0.171875 C 4.488281 0.0546875 4 0.171875 3.4375 0.171875 Z M 3.4375 0.171875 "/></g></g></g><g fill="#0030ff" fill-opacity="1"><g transform="translate(175.266949, 9.467101)"><g><path d="M 0.65625 0 L 0.65625 -6.609375 L 1.96875 -6.609375 L 5.03125 -1.515625 L 5.109375 -1.515625 L 5.109375 -6.609375 L 6.21875 -6.609375 L 6.21875 0 L 4.90625 0 L 1.84375 -5.09375 L 1.78125 -5.09375 L 1.78125 0 Z M 0.65625 0 "/></g></g></g><g fill="#0030ff" fill-opacity="1"><g transform="translate(184.140966, 9.467101)"><g><path d="M 0.65625 0 L 0.65625 -6.609375 L 1.84375 -6.609375 L 1.84375 -3.859375 L 1.921875 -3.859375 L 4.53125 -6.609375 L 5.96875 -6.609375 L 2.96875 -3.484375 L 6.015625 0 L 4.59375 0 L 1.921875 -3.078125 L 1.84375 -3.078125 L 1.84375 0 Z M 0.65625 0 "/></g></g></g></g></g></svg>