<svg width="509" height="150" viewBox="0 0 509 150" fill="none" xmlns="http://www.w3.org/2000/svg">
<path d="M487.556 0H379.833C368.159 0 358.694 9.46416 358.694 21.1388V128.861C358.694 140.536 368.159 150 379.833 150H487.556C499.23 150 508.694 140.536 508.694 128.861V21.1388C508.694 9.46416 499.23 0 487.556 0Z" fill="#0D2241"/>
<path d="M275.1 135.432C265.918 135.432 258.552 128.066 258.552 118.884V93.6887C258.552 84.6139 265.918 77.1406 275.1 77.1406H290.046C299.228 77.1406 306.701 84.6139 306.701 93.6887V118.884C306.701 128.066 299.228 135.432 290.046 135.432H275.1ZM268.427 93.2616V119.311C268.427 123.048 271.363 126.091 275.1 126.091H290.046C293.783 126.091 296.826 123.048 296.826 119.311V93.2616C296.826 89.6317 293.783 86.589 290.046 86.589H275.1C271.363 86.589 268.427 89.6317 268.427 93.2616Z" fill="#0D2241"/>
<path d="M348.498 49.2721V57.4394C348.498 58.1333 347.911 58.6671 347.27 58.6671H337.075C333.338 58.6671 330.402 61.6031 330.402 65.3397V79.9661C330.989 78.9518 332.11 78.2579 333.445 78.2579H344.548V86.4252C344.548 87.1191 343.961 87.5462 343.32 87.5462H330.402V133.347C330.402 134.041 329.815 134.575 329.174 134.575H320.58V65.7668C320.58 56.5853 327.947 49.2188 337.128 49.2188H348.605L348.498 49.2721Z" fill="#0D2241"/>
<path d="M384.371 80.4945C380.474 80.4945 376.844 79.3201 373.802 77.345V126.776C373.802 131.527 377.645 135.423 382.449 135.423H395.314V77.0781C392.218 79.2134 388.428 80.4945 384.371 80.4945Z" fill="white"/>
<path d="M454.246 52.5846H401.719C403 55.1469 403.694 58.0828 403.694 61.1256C403.694 64.1683 402.947 67.2643 401.612 69.88H414.584C415.118 69.88 415.545 70.3071 415.545 70.8409V135.485H425.634H426.381H429.317C433.534 135.485 436.95 132.069 436.95 127.852V118.99V70.8409C436.95 70.3071 437.377 69.88 437.911 69.88H446.506C450.829 69.88 454.353 66.3569 454.353 62.033V52.5312L454.246 52.5846Z" fill="white"/>
<path d="M62.0113 68.7548V79.9648C62.0113 90.5342 53.417 99.2353 42.7408 99.2353H17.9187C14.3956 99.2353 11.5664 97.2068 11.3529 94.6979V133.132C11.3529 133.933 10.659 134.627 9.85825 134.627H0.676758V56.0502C0.676758 52.4203 3.6127 49.4844 7.24259 49.4844H42.7408C53.417 49.4844 62.0113 58.2388 62.0113 68.7548ZM51.3351 67.8474C51.3351 63.0965 47.4917 59.2531 42.7408 59.2531H13.4881C12.2604 59.2531 11.3529 60.2673 11.3529 61.3883V87.3313C11.3529 88.4523 12.3672 89.4666 13.4881 89.4666H42.7408C47.4917 89.4666 51.3351 85.6232 51.3351 80.8723V67.8474Z" fill="#7DBD21"/>
<path d="M88.5422 135.432C79.3607 135.432 71.9941 128.066 71.9941 118.884V93.6887C71.9941 84.6139 79.3607 77.1406 88.5422 77.1406H103.489C112.67 77.1406 120.144 84.6139 120.144 93.6887V118.884C120.144 128.066 112.67 135.432 103.489 135.432H88.5422ZM81.8162 93.2616V119.311C81.8162 123.048 84.7521 126.091 88.4888 126.091H103.435C107.172 126.091 110.215 123.048 110.215 119.311V93.2616C110.215 89.6317 107.172 86.589 103.435 86.589H88.4888C84.7521 86.589 81.8162 89.6317 81.8162 93.2616Z" fill="#7DBD21"/>
<path d="M144.057 79.1093V134.679H135.463C134.769 134.679 134.235 134.091 134.235 133.451V77.9883H142.83C143.524 77.9883 144.057 78.4153 144.057 79.1093Z" fill="#7DBD21"/>
<path d="M206.566 94.4855V134.628H197.972C197.278 134.628 196.744 134.041 196.744 133.4V93.9517C196.744 90.3218 193.808 87.2791 190.071 87.2791H169.573C168.879 87.2791 168.346 87.8663 168.346 88.5069V133.4C168.346 134.094 167.758 134.628 167.118 134.628H158.523V85.304C158.523 81.2471 161.833 77.9375 165.89 77.9375H190.178C199.36 77.9375 206.726 85.304 206.726 94.4855H206.566Z" fill="#7DBD21"/>
<path d="M248.577 126.461V134.628H237.1C228.025 134.628 220.552 127.262 220.552 118.08V50.5H229.146C229.84 50.5 230.374 51.0872 230.374 51.7278V80.0729C230.961 78.8452 232.189 78.0445 233.683 78.0445H245.694V86.2117C245.694 86.9057 245.107 87.3327 244.466 87.3327H230.427V118.507C230.427 122.244 233.363 125.18 237.1 125.18H247.296C247.989 125.18 248.523 125.767 248.523 126.407L248.577 126.461Z" fill="#7DBD21"/>
<path d="M384.377 72.5944C390.716 72.5944 395.854 67.456 395.854 61.1175C395.854 54.779 390.716 49.6406 384.377 49.6406C378.039 49.6406 372.9 54.779 372.9 61.1175C372.9 67.456 378.039 72.5944 384.377 72.5944Z" fill="#7EBE19"/>
<path d="M139.145 69.2345C142.8 69.2345 145.764 66.271 145.764 62.6153C145.764 58.9596 142.8 55.9961 139.145 55.9961C135.489 55.9961 132.525 58.9596 132.525 62.6153C132.525 66.271 135.489 69.2345 139.145 69.2345Z" fill="#7DBD21"/>
</svg>
